NotoSansMeeteiMayek-Regular.ufo
<glyph name="uniAAE0" format="2">
  <advance width="683"/>
  <unicode hex="AAE0"/>
  <outline>
    <contour>
      <point x="203" y="-2" type="curve" smooth="yes"/>
      <point x="304" y="-2"/>
      <point x="345" y="38"/>
      <point x="450" y="38" type="curve" smooth="yes"/>
      <point x="514" y="38"/>
      <point x="564" y="19"/>
      <point x="603" y="-2" type="curve"/>
      <point x="603" y="394" type="line" smooth="yes"/>
      <point x="603" y="557"/>
      <point x="527" y="668"/>
      <point x="342" y="668" type="curve" smooth="yes"/>
      <point x="225" y="668"/>
      <point x="139" y="617"/>
      <point x="90" y="514" type="curve"/>
      <point x="161" y="476" type="line"/>
      <point x="204" y="559"/>
      <point x="257" y="593"/>
      <point x="340" y="593" type="curve" smooth="yes"/>
      <point x="456" y="593"/>
      <point x="522" y="526"/>
      <point x="522" y="413" type="curve" smooth="yes"/>
      <point x="522" y="103" type="line"/>
      <point x="496" y="110"/>
      <point x="470" y="113"/>
      <point x="450" y="113" type="curve" smooth="yes"/>
      <point x="365" y="113"/>
      <point x="298" y="71"/>
      <point x="206" y="71" type="curve" smooth="yes"/>
      <point x="140" y="71"/>
      <point x="94" y="99"/>
      <point x="69" y="131" type="curve"/>
      <point x="20" y="77" type="line"/>
      <point x="56" y="34"/>
      <point x="111" y="-2"/>
    </contour>
  </outline>
</glyph>
<glyph name="uniAAE1" format="2">
  <advance width="645"/>
  <unicode hex="AAE1"/>
  <outline>
    <contour>
      <point x="363" y="0" type="curve" smooth="yes"/>
      <point x="488" y="0"/>
      <point x="570" y="62"/>
      <point x="610" y="160" type="curve"/>
      <point x="541" y="198" type="line"/>
      <point x="508" y="123"/>
      <point x="455" y="75"/>
      <point x="362" y="75" type="curve" smooth="yes"/>
      <point x="246" y="75"/>
      <point x="178" y="130"/>
      <point x="178" y="252" type="curve" smooth="yes"/>
      <point x="178" y="586" type="line"/>
      <point x="610" y="586" type="line"/>
      <point x="610" y="659" type="line"/>
      <point x="32" y="659" type="line"/>
      <point x="32" y="586" type="line"/>
      <point x="96" y="586" type="line"/>
      <point x="96" y="274" type="line" smooth="yes"/>
      <point x="96" y="106"/>
      <point x="176" y="0"/>
    </contour>
  </outline>
</glyph>
<glyph name="uniAAE2" format="2">
  <advance width="802"/>
  <unicode hex="AAE2"/>
  <outline>
    <contour>
      <point x="150" y="-4" type="line"/>
      <point x="189" y="2"/>
      <point x="300" y="40"/>
      <point x="300" y="161" type="curve" smooth="yes"/>
      <point x="300" y="241"/>
      <point x="247" y="308"/>
      <point x="200" y="364" type="curve" smooth="yes"/>
      <point x="161" y="410"/>
      <point x="120" y="467"/>
      <point x="120" y="521" type="curve" smooth="yes"/>
      <point x="120" y="552"/>
      <point x="137" y="582"/>
      <point x="181" y="582" type="curve" smooth="yes"/>
      <point x="219" y="582"/>
      <point x="239" y="552"/>
      <point x="239" y="512" type="curve" smooth="yes"/>
      <point x="239" y="493"/>
      <point x="237" y="481"/>
      <point x="232" y="465" type="curve"/>
      <point x="569" y="465" type="line"/>
      <point x="564" y="481"/>
      <point x="562" y="496"/>
      <point x="562" y="511" type="curve" smooth="yes"/>
      <point x="562" y="552"/>
      <point x="582" y="582"/>
      <point x="620" y="582" type="curve" smooth="yes"/>
      <point x="664" y="582"/>
      <point x="681" y="552"/>
      <point x="681" y="521" type="curve" smooth="yes"/>
      <point x="681" y="467"/>
      <point x="640" y="410"/>
      <point x="601" y="364" type="curve" smooth="yes"/>
      <point x="554" y="308"/>
      <point x="501" y="241"/>
      <point x="501" y="161" type="curve" smooth="yes"/>
      <point x="501" y="40"/>
      <point x="612" y="2"/>
      <point x="651" y="-4" type="curve"/>
      <point x="672" y="75" type="line"/>
      <point x="651" y="79"/>
      <point x="582" y="101"/>
      <point x="582" y="161" type="curve" smooth="yes"/>
      <point x="582" y="215"/>
      <point x="610" y="257"/>
      <point x="656" y="313" type="curve" smooth="yes"/>
      <point x="706" y="373"/>
      <point x="761" y="442"/>
      <point x="761" y="521" type="curve" smooth="yes"/>
      <point x="761" y="592"/>
      <point x="716" y="658"/>
      <point x="619" y="658" type="curve" smooth="yes"/>
      <point x="531" y="658"/>
      <point x="485" y="594"/>
      <point x="487" y="535" type="curve"/>
      <point x="314" y="535" type="line"/>
      <point x="316" y="595"/>
      <point x="270" y="658"/>
      <point x="182" y="658" type="curve" smooth="yes"/>
      <point x="85" y="658"/>
      <point x="40" y="592"/>
      <point x="40" y="521" type="curve" smooth="yes"/>
      <point x="40" y="442"/>
      <point x="96" y="374"/>
      <point x="145" y="313" type="curve" smooth="yes"/>
      <point x="190" y="257"/>
      <point x="219" y="215"/>
      <point x="219" y="161" type="curve" smooth="yes"/>
      <point x="219" y="101"/>
      <point x="150" y="79"/>
      <point x="129" y="75" type="curve"/>
    </contour>
  </outline>
</glyph>
<glyph name="uniAAE3" format="2">
  <advance width="878"/>
  <unicode hex="AAE3"/>
  <outline>
    <contour>
      <point x="767" y="588" type="line"/>
      <point x="767" y="497"/>
      <point x="728" y="441"/>
      <point x="663" y="441" type="curve" smooth="yes"/>
      <point x="577" y="441"/>
      <point x="523" y="498"/>
      <point x="523" y="577" type="curve" smooth="yes"/>
      <point x="523" y="614"/>
      <point x="525" y="632"/>
      <point x="528" y="659" type="curve"/>
      <point x="450" y="659" type="line"/>
      <point x="388" y="243" type="line"/>
      <point x="376" y="291"/>
      <point x="321" y="356"/>
      <point x="221" y="356" type="curve" smooth="yes"/>
      <point x="132" y="356"/>
      <point x="30" y="303"/>
      <point x="30" y="169" type="curve" smooth="yes"/>
      <point x="30" y="146"/>
      <point x="33" y="120"/>
      <point x="40" y="92" type="curve"/>
      <point x="114" y="116" type="line"/>
      <point x="111" y="134"/>
      <point x="109" y="150"/>
      <point x="109" y="165" type="curve" smooth="yes"/>
      <point x="109" y="247"/>
      <point x="155" y="288"/>
      <point x="226" y="288" type="curve" smooth="yes"/>
      <point x="312" y="288"/>
      <point x="365" y="212"/>
      <point x="365" y="113" type="curve" smooth="yes"/>
      <point x="365" y="100"/>
      <point x="364" y="88"/>
      <point x="360" y="61" type="curve" smooth="yes"/>
      <point x="352" y="0" type="line"/>
      <point x="431" y="0" type="line"/>
      <point x="430" y="3" type="line"/>
      <point x="500" y="469" type="line"/>
      <point x="520" y="421"/>
      <point x="580" y="373"/>
      <point x="663" y="373" type="curve" smooth="yes"/>
      <point x="767" y="373"/>
      <point x="848" y="452"/>
      <point x="848" y="588" type="curve"/>
    </contour>
  </outline>
</glyph>
<glyph name="uniAAE4" format="2">
  <advance width="1112"/>
  <unicode hex="AAE4"/>
  <outline>
    <contour>
      <point x="220" y="-4" type="curve" smooth="yes"/>
      <point x="304" y="-4"/>
      <point x="399" y="38"/>
      <point x="399" y="158" type="curve" smooth="yes"/>
      <point x="399" y="232"/>
      <point x="356" y="308"/>
      <point x="268" y="431" type="curve"/>
      <point x="291" y="462" type="line" smooth="yes"/>
      <point x="338" y="526"/>
      <point x="381" y="583"/>
      <point x="434" y="583" type="curve" smooth="yes"/>
      <point x="485" y="583"/>
      <point x="533" y="519"/>
      <point x="578" y="458" type="curve" smooth="yes"/>
      <point x="598" y="431" type="line"/>
      <point x="508" y="307"/>
      <point x="466" y="234"/>
      <point x="466" y="159" type="curve" smooth="yes"/>
      <point x="466" y="40"/>
      <point x="568" y="-3"/>
      <point x="647" y="-3" type="curve" smooth="yes"/>
      <point x="730" y="-3"/>
      <point x="826" y="39"/>
      <point x="826" y="159" type="curve" smooth="yes"/>
      <point x="826" y="233"/>
      <point x="784" y="311"/>
      <point x="694" y="433" type="curve"/>
      <point x="717" y="464" type="line" smooth="yes"/>
      <point x="761" y="523"/>
      <point x="810" y="587"/>
      <point x="861" y="587" type="curve" smooth="yes"/>
      <point x="913" y="587"/>
      <point x="947" y="567"/>
      <point x="947" y="462" type="curve" smooth="yes"/>
      <point x="947" y="0" type="line"/>
      <point x="1032" y="0" type="line"/>
      <point x="1032" y="466" type="line" smooth="yes"/>
      <point x="1032" y="615"/>
      <point x="969" y="663"/>
      <point x="867" y="663" type="curve" smooth="yes"/>
      <point x="773" y="663"/>
      <point x="712" y="583"/>
      <point x="646" y="497" type="curve"/>
      <point x="579" y="585"/>
      <point x="521" y="659"/>
      <point x="435" y="659" type="curve" smooth="yes"/>
      <point x="345" y="659"/>
      <point x="278" y="571"/>
      <point x="208" y="479" type="curve" smooth="yes"/>
      <point x="95" y="330"/>
      <point x="40" y="241"/>
      <point x="40" y="158" type="curve" smooth="yes"/>
      <point x="40" y="39"/>
      <point x="141" y="-4"/>
    </contour>
    <contour>
      <point x="219" y="70" type="curve" smooth="yes"/>
      <point x="165" y="70"/>
      <point x="123" y="103"/>
      <point x="123" y="171" type="curve" smooth="yes"/>
      <point x="123" y="221"/>
      <point x="160" y="284"/>
      <point x="218" y="365" type="curve"/>
      <point x="276" y="287"/>
      <point x="316" y="221"/>
      <point x="316" y="173" type="curve" smooth="yes"/>
      <point x="316" y="103"/>
      <point x="275" y="70"/>
    </contour>
    <contour>
      <point x="646" y="71" type="curve" smooth="yes"/>
      <point x="591" y="71"/>
      <point x="550" y="104"/>
      <point x="550" y="172" type="curve" smooth="yes"/>
      <point x="550" y="222"/>
      <point x="587" y="285"/>
      <point x="645" y="366" type="curve"/>
      <point x="703" y="288"/>
      <point x="742" y="222"/>
      <point x="742" y="174" type="curve" smooth="yes"/>
      <point x="742" y="104"/>
      <point x="702" y="71"/>
    </contour>
  </outline>
</glyph>
<glyph name="uniAAE5" format="2">
  <advance width="680"/>
  <unicode hex="AAE5"/>
  <outline>
    <contour>
      <point x="95" y="0" type="line"/>
      <point x="585" y="0" type="line"/>
      <point x="585" y="435" type="line"/>
      <point x="381" y="435" type="line"/>
      <point x="381" y="585" type="line"/>
      <point x="640" y="585" type="line"/>
      <point x="640" y="659" type="line"/>
      <point x="40" y="659" type="line"/>
      <point x="40" y="585" type="line"/>
      <point x="300" y="585" type="line"/>
      <point x="300" y="435" type="line"/>
      <point x="95" y="435" type="line"/>
    </contour>
    <contour>
      <point x="179" y="70" type="line"/>
      <point x="179" y="361" type="line"/>
      <point x="300" y="361" type="line"/>
      <point x="300" y="70" type="line"/>
    </contour>
    <contour>
      <point x="381" y="70" type="line"/>
      <point x="381" y="361" type="line"/>
      <point x="502" y="361" type="line"/>
      <point x="502" y="70" type="line"/>
    </contour>
  </outline>
</glyph>
<glyph name="uniAAE6" format="2">
  <advance width="857"/>
  <unicode hex="AAE6"/>
  <outline>
    <contour>
      <point x="432" y="225" type="curve" smooth="yes"/>
      <point x="389" y="225"/>
      <point x="356" y="255"/>
      <point x="356" y="306" type="curve" smooth="yes"/>
      <point x="356" y="364"/>
      <point x="385" y="406"/>
      <point x="432" y="476" type="curve"/>
      <point x="481" y="407"/>
      <point x="509" y="365"/>
      <point x="509" y="308" type="curve" smooth="yes"/>
      <point x="509" y="255"/>
      <point x="477" y="225"/>
    </contour>
    <contour>
      <point x="481" y="536" type="curve"/>
      <point x="512" y="575"/>
      <point x="550" y="595"/>
      <point x="602" y="595" type="curve" smooth="yes"/>
      <point x="666" y="595"/>
      <point x="727" y="550"/>
      <point x="727" y="353" type="curve" smooth="yes"/>
      <point x="727" y="162"/>
      <point x="654" y="82"/>
      <point x="531" y="75" type="curve"/>
      <point x="531" y="-1" type="line"/>
      <point x="701" y="6"/>
      <point x="809" y="116"/>
      <point x="809" y="353" type="curve" smooth="yes"/>
      <point x="809" y="610"/>
      <point x="703" y="668"/>
      <point x="600" y="668" type="curve" smooth="yes"/>
      <point x="512" y="668"/>
      <point x="467" y="630"/>
      <point x="433" y="594" type="curve"/>
      <point x="403" y="630"/>
      <point x="357" y="668"/>
      <point x="274" y="668" type="curve" smooth="yes"/>
      <point x="161" y="668"/>
      <point x="48" y="594"/>
      <point x="48" y="352" type="curve" smooth="yes"/>
      <point x="48" y="115"/>
      <point x="165" y="3"/>
      <point x="331" y="-1" type="curve"/>
      <point x="331" y="75" type="line"/>
      <point x="203" y="79"/>
      <point x="135" y="161"/>
      <point x="135" y="352" type="curve" smooth="yes"/>
      <point x="135" y="550"/>
      <point x="202" y="594"/>
      <point x="270" y="594" type="curve" smooth="yes"/>
      <point x="318" y="594"/>
      <point x="356" y="575"/>
      <point x="387" y="536" type="curve"/>
      <point x="307" y="432"/>
      <point x="273" y="385"/>
      <point x="273" y="303" type="curve" smooth="yes"/>
      <point x="273" y="194"/>
      <point x="363" y="151"/>
      <point x="433" y="151" type="curve" smooth="yes"/>
      <point x="508" y="151"/>
      <point x="592" y="193"/>
      <point x="592" y="303" type="curve" smooth="yes"/>
      <point x="592" y="384"/>
      <point x="556" y="434"/>
    </contour>
  </outline>
</glyph>
<glyph name="uniAAE7" format="2">
  <advance width="932"/>
  <unicode hex="AAE7"/>
  <outline>
    <contour>
      <point x="467" y="-3" type="curve" smooth="yes"/>
      <point x="551" y="-3"/>
      <point x="646" y="39"/>
      <point x="646" y="159" type="curve" smooth="yes"/>
      <point x="646" y="233"/>
      <point x="603" y="309"/>
      <point x="515" y="431" type="curve"/>
      <point x="560" y="491"/>
      <point x="628" y="583"/>
      <point x="682" y="583" type="curve" smooth="yes"/>
      <point x="733" y="583"/>
      <point x="767" y="560"/>
      <point x="767" y="466" type="curve" smooth="yes"/>
      <point x="767" y="0" type="line"/>
      <point x="852" y="0" type="line"/>
      <point x="852" y="470" type="line" smooth="yes"/>
      <point x="852" y="606"/>
      <point x="790" y="659"/>
      <point x="688" y="659" type="curve" smooth="yes"/>
      <point x="593" y="659"/>
      <point x="532" y="584"/>
      <point x="466" y="497" type="curve"/>
      <point x="401" y="586"/>
      <point x="341" y="659"/>
      <point x="245" y="659" type="curve" smooth="yes"/>
      <point x="143" y="659"/>
      <point x="80" y="606"/>
      <point x="80" y="470" type="curve" smooth="yes"/>
      <point x="80" y="0" type="line"/>
      <point x="166" y="0" type="line"/>
      <point x="166" y="466" type="line" smooth="yes"/>
      <point x="166" y="560"/>
      <point x="199" y="583"/>
      <point x="251" y="583" type="curve" smooth="yes"/>
      <point x="301" y="583"/>
      <point x="356" y="511"/>
      <point x="418" y="431" type="curve"/>
      <point x="327" y="307"/>
      <point x="287" y="234"/>
      <point x="287" y="159" type="curve" smooth="yes"/>
      <point x="287" y="40"/>
      <point x="388" y="-3"/>
    </contour>
    <contour>
      <point x="466" y="71" type="curve" smooth="yes"/>
      <point x="412" y="71"/>
      <point x="370" y="104"/>
      <point x="370" y="172" type="curve" smooth="yes"/>
      <point x="370" y="224"/>
      <point x="406" y="285"/>
      <point x="466" y="367" type="curve"/>
      <point x="527" y="286"/>
      <point x="563" y="225"/>
      <point x="563" y="174" type="curve" smooth="yes"/>
      <point x="563" y="104"/>
      <point x="522" y="71"/>
    </contour>
  </outline>
</glyph>
<glyph name="uniAAE8" format="2">
  <advance width="678"/>
  <unicode hex="AAE8"/>
  <outline>
    <contour>
      <point x="117" y="0" type="line"/>
      <point x="198" y="0" type="line"/>
      <point x="198" y="587" type="line"/>
      <point x="633" y="587" type="line"/>
      <point x="633" y="659" type="line"/>
      <point x="55" y="659" type="line"/>
      <point x="55" y="586" type="line"/>
      <point x="117" y="586" type="line"/>
    </contour>
    <contour>
      <point x="520" y="-7" type="line"/>
      <point x="604" y="309" type="line" smooth="yes"/>
      <point x="608" y="323"/>
      <point x="613" y="354"/>
      <point x="613" y="366" type="curve" smooth="yes"/>
      <point x="613" y="454"/>
      <point x="543" y="478"/>
      <point x="483" y="478" type="curve" smooth="yes"/>
      <point x="257" y="478" type="line"/>
      <point x="257" y="408" type="line"/>
      <point x="468" y="408" type="line" smooth="yes"/>
      <point x="511" y="408"/>
      <point x="534" y="393"/>
      <point x="534" y="355" type="curve" smooth="yes"/>
      <point x="534" y="347"/>
      <point x="534" y="339"/>
      <point x="532" y="330" type="curve" smooth="yes"/>
      <point x="447" y="8" type="line"/>
    </contour>
  </outline>
</glyph>
<glyph name="uniAAE9" format="2">
  <advance width="1126"/>
  <unicode hex="AAE9"/>
  <outline>
    <contour>
      <point x="319" y="-9" type="curve" smooth="yes"/>
      <point x="403" y="-9"/>
      <point x="517" y="35"/>
      <point x="517" y="176" type="curve" smooth="yes"/>
      <point x="517" y="262"/>
      <point x="450" y="330"/>
      <point x="370" y="405" type="curve"/>
      <point x="441" y="468"/>
      <point x="515" y="524"/>
      <point x="564" y="557" type="curve"/>
      <point x="615" y="523"/>
      <point x="689" y="465"/>
      <point x="756" y="406" type="curve"/>
      <point x="678" y="331"/>
      <point x="610" y="261"/>
      <point x="610" y="176" type="curve" smooth="yes"/>
      <point x="610" y="35"/>
      <point x="723" y="-9"/>
      <point x="809" y="-9" type="curve" smooth="yes"/>
      <point x="893" y="-9"/>
      <point x="1007" y="35"/>
      <point x="1007" y="176" type="curve" smooth="yes"/>
      <point x="1007" y="262"/>
      <point x="940" y="330"/>
      <point x="860" y="405" type="curve"/>
      <point x="968" y="501"/>
      <point x="1083" y="573"/>
      <point x="1106" y="586" type="curve"/>
      <point x="1106" y="659" type="line"/>
      <point x="20" y="659" type="line"/>
      <point x="20" y="586" type="line"/>
      <point x="45" y="573"/>
      <point x="165" y="495"/>
      <point x="266" y="406" type="curve"/>
      <point x="188" y="331"/>
      <point x="120" y="261"/>
      <point x="120" y="176" type="curve" smooth="yes"/>
      <point x="120" y="35"/>
      <point x="233" y="-9"/>
    </contour>
    <contour>
      <point x="319" y="62" type="curve" smooth="yes"/>
      <point x="262" y="62"/>
      <point x="207" y="100"/>
      <point x="207" y="179" type="curve" smooth="yes"/>
      <point x="207" y="237"/>
      <point x="243" y="295"/>
      <point x="319" y="349" type="curve"/>
      <point x="385" y="296"/>
      <point x="430" y="236"/>
      <point x="430" y="179" type="curve" smooth="yes"/>
      <point x="430" y="100"/>
      <point x="373" y="62"/>
    </contour>
    <contour>
      <point x="319" y="453" type="curve"/>
      <point x="254" y="507"/>
      <point x="207" y="544"/>
      <point x="149" y="586" type="curve"/>
      <point x="495" y="586" type="line"/>
      <point x="430" y="544"/>
      <point x="383" y="508"/>
    </contour>
    <contour>
      <point x="809" y="62" type="curve" smooth="yes"/>
      <point x="752" y="62"/>
      <point x="697" y="100"/>
      <point x="697" y="179" type="curve" smooth="yes"/>
      <point x="697" y="237"/>
      <point x="733" y="295"/>
      <point x="809" y="349" type="curve"/>
      <point x="875" y="296"/>
      <point x="920" y="236"/>
      <point x="920" y="179" type="curve" smooth="yes"/>
      <point x="920" y="100"/>
      <point x="863" y="62"/>
    </contour>
    <contour>
      <point x="809" y="453" type="curve"/>
      <point x="744" y="507"/>
      <point x="697" y="544"/>
      <point x="639" y="586" type="curve"/>
      <point x="985" y="586" type="line"/>
      <point x="920" y="544"/>
      <point x="873" y="508"/>
    </contour>
  </outline>
</glyph>
<glyph name="uniAAEA" format="2">
  <advance width="691"/>
  <unicode hex="AAEA"/>
  <outline>
    <contour>
      <point x="80" y="0" type="line"/>
      <point x="611" y="0" type="line"/>
      <point x="611" y="386" type="line" smooth="yes"/>
      <point x="611" y="540"/>
      <point x="528" y="664"/>
      <point x="344" y="664" type="curve" smooth="yes"/>
      <point x="166" y="664"/>
      <point x="80" y="540"/>
      <point x="80" y="386" type="curve" smooth="yes"/>
    </contour>
    <contour>
      <point x="163" y="71" type="line"/>
      <point x="163" y="282" type="line"/>
      <point x="529" y="282" type="line"/>
      <point x="529" y="71" type="line"/>
    </contour>
    <contour>
      <point x="163" y="353" type="line"/>
      <point x="163" y="399" type="line" smooth="yes"/>
      <point x="163" y="518"/>
      <point x="230" y="588"/>
      <point x="345" y="588" type="curve" smooth="yes"/>
      <point x="461" y="588"/>
      <point x="529" y="520"/>
      <point x="529" y="399" type="curve" smooth="yes"/>
      <point x="529" y="353" type="line"/>
    </contour>
  </outline>
</glyph>
<glyph name="uniAAEB" format="2">
  <advance width="399"/>
  <unicode hex="AAEB"/>
  <outline>
    <contour>
      <point x="200" y="0" type="line"/>
      <point x="285" y="0" type="line"/>
      <point x="285" y="582" type="line"/>
      <point x="380" y="582" type="line"/>
      <point x="380" y="659" type="line"/>
      <point x="285" y="659" type="line"/>
      <point x="285" y="713" type="line" smooth="yes"/>
      <point x="285" y="803"/>
      <point x="235" y="845"/>
      <point x="149" y="845" type="curve" smooth="yes"/>
      <point x="87" y="845"/>
      <point x="19" y="808"/>
      <point x="19" y="720" type="curve" smooth="yes"/>
      <point x="19" y="612"/>
      <point x="107" y="584"/>
      <point x="200" y="582" type="curve"/>
    </contour>
    <contour>
      <point x="200" y="659" type="line"/>
      <point x="141" y="659"/>
      <point x="103" y="670"/>
      <point x="103" y="721" type="curve" smooth="yes"/>
      <point x="103" y="759"/>
      <point x="126" y="774"/>
      <point x="151" y="774" type="curve" smooth="yes"/>
      <point x="184" y="774"/>
      <point x="200" y="759"/>
      <point x="200" y="713" type="curve" smooth="yes"/>
    </contour>
  </outline>
</glyph>
<glyph name="uniAAEC" format="2">
  <unicode hex="AAEC"/>
  <outline>
    <contour>
      <point x="-303" y="-201" type="curve" smooth="yes"/>
      <point x="-271" y="-201"/>
      <point x="-245" y="-191"/>
      <point x="-228" y="-162" type="curve"/>
      <point x="-213" y="-187"/>
      <point x="-186" y="-201"/>
      <point x="-156" y="-201" type="curve" smooth="yes"/>
      <point x="-78" y="-201"/>
      <point x="-62" y="-147"/>
      <point x="-62" y="-102" type="curve" smooth="yes"/>
      <point x="-62" y="-82"/>
      <point x="-65" y="-63"/>
      <point x="-66" y="-60" type="curve"/>
      <point x="-121" y="-60" type="line"/>
      <point x="-120" y="-69"/>
      <point x="-118" y="-87"/>
      <point x="-118" y="-99" type="curve" smooth="yes"/>
      <point x="-118" y="-131"/>
      <point x="-129" y="-146"/>
      <point x="-159" y="-146" type="curve" smooth="yes"/>
      <point x="-180" y="-146"/>
      <point x="-199" y="-131"/>
      <point x="-199" y="-106" type="curve" smooth="yes"/>
      <point x="-199" y="-60" type="line"/>
      <point x="-257" y="-60" type="line"/>
      <point x="-257" y="-106" type="line" smooth="yes"/>
      <point x="-257" y="-134"/>
      <point x="-279" y="-146"/>
      <point x="-300" y="-146" type="curve" smooth="yes"/>
      <point x="-329" y="-146"/>
      <point x="-340" y="-131"/>
      <point x="-340" y="-99" type="curve" smooth="yes"/>
      <point x="-340" y="-81"/>
      <point x="-338" y="-64"/>
      <point x="-337" y="-60" type="curve"/>
      <point x="-392" y="-60" type="line"/>
      <point x="-394" y="-70"/>
      <point x="-396" y="-88"/>
      <point x="-396" y="-102" type="curve" smooth="yes"/>
      <point x="-396" y="-147"/>
      <point x="-380" y="-201"/>
    </contour>
  </outline>
</glyph>
<glyph name="uniAAED" format="2">
  <unicode hex="AAED"/>
  <outline>
    <contour>
      <point x="-362" y="710" type="curve" smooth="yes"/>
      <point x="-311" y="710"/>
      <point x="-258" y="740"/>
      <point x="-258" y="807" type="curve" smooth="yes"/>
      <point x="-258" y="898"/>
      <point x="-373" y="988"/>
      <point x="-463" y="1041" type="curve"/>
      <point x="-498" y="986" type="line"/>
      <point x="-455" y="961"/>
      <point x="-419" y="939"/>
      <point x="-397" y="914" type="curve"/>
      <point x="-438" y="885"/>
      <point x="-464" y="855"/>
      <point x="-464" y="809" type="curve" smooth="yes"/>
      <point x="-464" y="742"/>
      <point x="-417" y="710"/>
    </contour>
    <contour>
      <point x="-364" y="768" type="curve" smooth="yes"/>
      <point x="-385" y="768"/>
      <point x="-401" y="783"/>
      <point x="-401" y="809" type="curve" smooth="yes"/>
      <point x="-401" y="839"/>
      <point x="-382" y="859"/>
      <point x="-354" y="877" type="curve"/>
      <point x="-336" y="861"/>
      <point x="-325" y="836"/>
      <point x="-325" y="812" type="curve" smooth="yes"/>
      <point x="-325" y="782"/>
      <point x="-347" y="768"/>
    </contour>
  </outline>
</glyph>
<glyph name="uniAAEE" format="2">
  <advance width="380"/>
  <unicode hex="AAEE"/>
  <outline>
    <contour>
      <point x="200" y="0" type="line"/>
      <point x="285" y="0" type="line"/>
      <point x="285" y="452" type="line"/>
      <point x="361" y="452" type="line"/>
      <point x="361" y="529" type="line"/>
      <point x="285" y="529" type="line"/>
      <point x="285" y="713" type="line" smooth="yes"/>
      <point x="285" y="803"/>
      <point x="235" y="845"/>
      <point x="149" y="845" type="curve" smooth="yes"/>
      <point x="87" y="845"/>
      <point x="19" y="808"/>
      <point x="19" y="720" type="curve" smooth="yes"/>
      <point x="19" y="618"/>
      <point x="100" y="582"/>
      <point x="189" y="582" type="curve" smooth="yes"/>
      <point x="200" y="582" type="line"/>
    </contour>
    <contour>
      <point x="181" y="658" type="curve" smooth="yes"/>
      <point x="134" y="658"/>
      <point x="103" y="676"/>
      <point x="103" y="721" type="curve" smooth="yes"/>
      <point x="103" y="759"/>
      <point x="126" y="774"/>
      <point x="151" y="774" type="curve" smooth="yes"/>
      <point x="184" y="774"/>
      <point x="200" y="759"/>
      <point x="200" y="713" type="curve" smooth="yes"/>
      <point x="200" y="659" type="line"/>
      <point x="193" y="658"/>
      <point x="187" y="658"/>
    </contour>
  </outline>
</glyph>
<glyph name="uniAAEF" format="2">
  <advance width="380"/>
  <unicode hex="AAEF"/>
  <outline>
    <contour>
      <point x="95" y="0" type="line"/>
      <point x="180" y="0" type="line"/>
      <point x="180" y="582" type="line"/>
      <point x="191" y="582" type="line" smooth="yes"/>
      <point x="280" y="582"/>
      <point x="361" y="618"/>
      <point x="361" y="720" type="curve" smooth="yes"/>
      <point x="361" y="808"/>
      <point x="293" y="845"/>
      <point x="231" y="845" type="curve" smooth="yes"/>
      <point x="145" y="845"/>
      <point x="95" y="803"/>
      <point x="95" y="713" type="curve" smooth="yes"/>
      <point x="95" y="529" type="line"/>
      <point x="19" y="529" type="line"/>
      <point x="19" y="452" type="line"/>
      <point x="95" y="452" type="line"/>
    </contour>
    <contour>
      <point x="199" y="658" type="curve" smooth="yes"/>
      <point x="193" y="658"/>
      <point x="187" y="658"/>
      <point x="180" y="659" type="curve"/>
      <point x="180" y="713" type="line" smooth="yes"/>
      <point x="180" y="759"/>
      <point x="196" y="774"/>
      <point x="229" y="774" type="curve" smooth="yes"/>
      <point x="254" y="774"/>
      <point x="277" y="759"/>
      <point x="277" y="721" type="curve" smooth="yes"/>
      <point x="277" y="678"/>
      <point x="246" y="658"/>
    </contour>
  </outline>
</glyph>
<glyph name="uniAAF0" format="2">
  <advance width="254"/>
  <unicode hex="AAF0"/>
  <outline>
    <contour>
      <point x="86" y="-30" type="line"/>
      <point x="168" y="-30" type="line"/>
      <point x="168" y="688" type="line"/>
      <point x="86" y="688" type="line"/>
    </contour>
  </outline>
</glyph>
<glyph name="uniAAF1" format="2">
  <advance width="640"/>
  <unicode hex="AAF1"/>
  <outline>
    <contour>
      <point x="319" y="312" type="curve" smooth="yes"/>
      <point x="440" y="312"/>
      <point x="535" y="344"/>
      <point x="605" y="432" type="curve"/>
      <point x="553" y="480" type="line"/>
      <point x="495" y="407"/>
      <point x="419" y="381"/>
      <point x="319" y="381" type="curve" smooth="yes"/>
      <point x="221" y="381"/>
      <point x="145" y="408"/>
      <point x="88" y="480" type="curve"/>
      <point x="35" y="432" type="line"/>
      <point x="106" y="342"/>
      <point x="195" y="312"/>
    </contour>
    <contour>
      <point x="88" y="83" type="line"/>
      <point x="145" y="156"/>
      <point x="221" y="183"/>
      <point x="319" y="183" type="curve" smooth="yes"/>
      <point x="419" y="183"/>
      <point x="495" y="157"/>
      <point x="553" y="83" type="curve"/>
      <point x="605" y="132" type="line"/>
      <point x="535" y="219"/>
      <point x="440" y="251"/>
      <point x="319" y="251" type="curve" smooth="yes"/>
      <point x="195" y="251"/>
      <point x="106" y="221"/>
      <point x="35" y="132" type="curve"/>
    </contour>
  </outline>
</glyph>
<glyph name="uniAAF2" format="2">
  <advance width="466"/>
  <unicode hex="AAF2"/>
  <outline>
    <contour>
      <point x="229" y="-3" type="curve" smooth="yes"/>
      <point x="301" y="-3"/>
      <point x="371" y="31"/>
      <point x="416" y="110" type="curve"/>
      <point x="355" y="152" type="line"/>
      <point x="322" y="93"/>
      <point x="279" y="65"/>
      <point x="228" y="65" type="curve" smooth="yes"/>
      <point x="173" y="65"/>
      <point x="128" y="90"/>
      <point x="128" y="149" type="curve" smooth="yes"/>
      <point x="128" y="200"/>
      <point x="183" y="242"/>
      <point x="248" y="290" type="curve" smooth="yes"/>
      <point x="317" y="341"/>
      <point x="400" y="385"/>
      <point x="400" y="470" type="curve" smooth="yes"/>
      <point x="400" y="567"/>
      <point x="332" y="622"/>
      <point x="237" y="622" type="curve" smooth="yes"/>
      <point x="167" y="622"/>
      <point x="101" y="592"/>
      <point x="62" y="517" type="curve"/>
      <point x="130" y="483" type="line"/>
      <point x="155" y="536"/>
      <point x="194" y="554"/>
      <point x="237" y="554" type="curve" smooth="yes"/>
      <point x="290" y="554"/>
      <point x="325" y="526"/>
      <point x="325" y="474" type="curve" smooth="yes"/>
      <point x="325" y="432"/>
      <point x="296" y="412"/>
      <point x="207" y="347" type="curve" smooth="yes"/>
      <point x="109" y="275"/>
      <point x="51" y="230"/>
      <point x="51" y="153" type="curve" smooth="yes"/>
      <point x="51" y="47"/>
      <point x="135" y="-3"/>
    </contour>
    <contour>
      <point x="234" y="659" type="curve" smooth="yes"/>
      <point x="293" y="659"/>
      <point x="364" y="680"/>
      <point x="391" y="756" type="curve"/>
      <point x="332" y="776" type="line"/>
      <point x="313" y="732"/>
      <point x="279" y="713"/>
      <point x="234" y="713" type="curve" smooth="yes"/>
      <point x="190" y="713"/>
      <point x="157" y="732"/>
      <point x="136" y="778" type="curve"/>
      <point x="77" y="756" type="line"/>
      <point x="106" y="679"/>
      <point x="175" y="659"/>
    </contour>
    <contour>
      <point x="233" y="768" type="curve" smooth="yes"/>
      <point x="256" y="768"/>
      <point x="274" y="786"/>
      <point x="274" y="809" type="curve" smooth="yes"/>
      <point x="274" y="832"/>
      <point x="256" y="850"/>
      <point x="233" y="850" type="curve" smooth="yes"/>
      <point x="210" y="850"/>
      <point x="192" y="832"/>
      <point x="192" y="809" type="curve" smooth="yes"/>
      <point x="192" y="786"/>
      <point x="210" y="768"/>
    </contour>
  </outline>
</glyph>
<glyph name="uniAAF3" format="2">
  <advance width="616"/>
  <unicode hex="AAF3"/>
  <outline>
    <contour>
      <point x="72" y="-9" type="line"/>
      <point x="159" y="73"/>
      <point x="238" y="151"/>
      <point x="308" y="214" type="curve"/>
      <point x="376" y="152"/>
      <point x="441" y="87"/>
      <point x="544" y="-9" type="curve"/>
      <point x="596" y="49" type="line"/>
      <point x="521" y="114"/>
      <point x="451" y="175"/>
      <point x="360" y="261" type="curve"/>
      <point x="445" y="330"/>
      <point x="507" y="394"/>
      <point x="507" y="479" type="curve" smooth="yes"/>
      <point x="507" y="620"/>
      <point x="396" y="659"/>
      <point x="306" y="659" type="curve" smooth="yes"/>
      <point x="220" y="659"/>
      <point x="109" y="620"/>
      <point x="109" y="479" type="curve" smooth="yes"/>
      <point x="109" y="394"/>
      <point x="169" y="329"/>
      <point x="255" y="260" type="curve"/>
      <point x="162" y="174"/>
      <point x="96" y="115"/>
      <point x="20" y="49" type="curve"/>
    </contour>
    <contour>
      <point x="308" y="310" type="curve"/>
      <point x="227" y="375"/>
      <point x="196" y="418"/>
      <point x="196" y="476" type="curve" smooth="yes"/>
      <point x="196" y="555"/>
      <point x="251" y="588"/>
      <point x="308" y="588" type="curve" smooth="yes"/>
      <point x="365" y="588"/>
      <point x="420" y="555"/>
      <point x="420" y="476" type="curve" smooth="yes"/>
      <point x="420" y="418"/>
      <point x="391" y="375"/>
    </contour>
  </outline>
</glyph>
<glyph name="uniAAF4" format="2">
  <advance width="368"/>
  <unicode hex="AAF4"/>
  <outline>
    <contour>
      <point x="290" y="-9" type="curve"/>
      <point x="348" y="40" type="line"/>
      <point x="274" y="119"/>
      <point x="213" y="191"/>
      <point x="150" y="262" type="curve"/>
      <point x="235" y="338"/>
      <point x="278" y="398"/>
      <point x="278" y="479" type="curve" smooth="yes"/>
      <point x="278" y="606"/>
      <point x="187" y="659"/>
      <point x="86" y="659" type="curve" smooth="yes"/>
      <point x="75" y="659"/>
      <point x="62" y="658"/>
      <point x="50" y="657" type="curve"/>
      <point x="59" y="581" type="line"/>
      <point x="65" y="582"/>
      <point x="73" y="582"/>
      <point x="79" y="582" type="curve" smooth="yes"/>
      <point x="145" y="582"/>
      <point x="193" y="545"/>
      <point x="193" y="471" type="curve" smooth="yes"/>
      <point x="193" y="419"/>
      <point x="174" y="375"/>
      <point x="52" y="269" type="curve"/>
      <point x="111" y="199"/>
      <point x="194" y="98"/>
    </contour>
  </outline>
</glyph>
<glyph name="uniAAF5" format="2">
  <advance width="315"/>
  <unicode hex="AAF5"/>
  <outline>
    <contour>
      <point x="152" y="113" type="curve" smooth="yes"/>
      <point x="228" y="113"/>
      <point x="290" y="163"/>
      <point x="290" y="235" type="curve" smooth="yes"/>
      <point x="290" y="309"/>
      <point x="228" y="362"/>
      <point x="152" y="362" type="curve" smooth="yes"/>
      <point x="81" y="362"/>
      <point x="20" y="309"/>
      <point x="20" y="235" type="curve" smooth="yes"/>
      <point x="20" y="163"/>
      <point x="81" y="113"/>
    </contour>
    <contour>
      <point x="111" y="0" type="line"/>
      <point x="193" y="0" type="line"/>
      <point x="193" y="158" type="line"/>
      <point x="111" y="158" type="line"/>
    </contour>
    <contour>
      <point x="152" y="177" type="curve" smooth="yes"/>
      <point x="119" y="177"/>
      <point x="93" y="202"/>
      <point x="93" y="238" type="curve" smooth="yes"/>
      <point x="93" y="272"/>
      <point x="119" y="299"/>
      <point x="152" y="299" type="curve" smooth="yes"/>
      <point x="188" y="299"/>
      <point x="214" y="272"/>
      <point x="214" y="238" type="curve" smooth="yes"/>
      <point x="214" y="202"/>
      <point x="188" y="177"/>
    </contour>
  </outline>
</glyph>
<glyph name="uniAAF6" format="2">
  <unicode hex="AAF6"/>
  <outline>
    <contour>
      <point x="-530" y="-318" type="line"/>
      <point x="-463" y="-318" type="line"/>
      <point x="-463" y="-90" type="line"/>
      <point x="-530" y="-90" type="line"/>
    </contour>
    <contour>
      <point x="-611" y="-235" type="line"/>
      <point x="-383" y="-235" type="line"/>
      <point x="-383" y="-172" type="line"/>
      <point x="-611" y="-172" type="line"/>
    </contour>
  </outline>
</glyph>
<glyph name="uniABC0" format="2">
  <advance width="895"/>
  <unicode hex="ABC0"/>
  <outline>
    <contour>
      <point x="88" y="0" type="line"/>
      <point x="802" y="0" type="line"/>
      <point x="802" y="585" type="line"/>
      <point x="840" y="585" type="line"/>
      <point x="840" y="659" type="line"/>
      <point x="55" y="659" type="line"/>
      <point x="55" y="585" type="line"/>
      <point x="88" y="585" type="line"/>
    </contour>
    <contour>
      <point x="171" y="69" type="line"/>
      <point x="171" y="74" type="line"/>
      <point x="302" y="176" type="line"/>
      <point x="302" y="69" type="line"/>
    </contour>
    <contour>
      <point x="171" y="161" type="line"/>
      <point x="171" y="585" type="line"/>
      <point x="302" y="585" type="line"/>
      <point x="302" y="261" type="line"/>
    </contour>
    <contour>
      <point x="384" y="69" type="line"/>
      <point x="384" y="239" type="line"/>
      <point x="508" y="335" type="line"/>
      <point x="508" y="69" type="line"/>
    </contour>
    <contour>
      <point x="384" y="323" type="line"/>
      <point x="384" y="585" type="line"/>
      <point x="508" y="585" type="line"/>
      <point x="508" y="418" type="line"/>
    </contour>
    <contour>
      <point x="588" y="69" type="line"/>
      <point x="588" y="397" type="line"/>
      <point x="722" y="501" type="line"/>
      <point x="722" y="69" type="line"/>
    </contour>
    <contour>
      <point x="588" y="478" type="line"/>
      <point x="588" y="585" type="line"/>
      <point x="722" y="585" type="line"/>
      <point x="722" y="580" type="line"/>
    </contour>
  </outline>
</glyph>
<glyph name="uniABC2" format="2">
  <advance width="632"/>
  <unicode hex="ABC2"/>
  <outline>
    <contour>
      <point x="326" y="-4" type="curve" smooth="yes"/>
      <point x="429" y="-4"/>
      <point x="508" y="33"/>
      <point x="569" y="89" type="curve"/>
      <point x="529" y="157" type="line"/>
      <point x="479" y="111"/>
      <point x="407" y="70"/>
      <point x="326" y="70" type="curve" smooth="yes"/>
      <point x="231" y="70"/>
      <point x="151" y="123"/>
      <point x="151" y="252" type="curve" smooth="yes"/>
      <point x="151" y="379"/>
      <point x="230" y="436"/>
      <point x="308" y="436" type="curve" smooth="yes"/>
      <point x="377" y="436"/>
      <point x="435" y="407"/>
      <point x="474" y="355" type="curve"/>
      <point x="556" y="355" type="line"/>
      <point x="556" y="586" type="line"/>
      <point x="592" y="586" type="line"/>
      <point x="592" y="659" type="line"/>
      <point x="40" y="659" type="line"/>
      <point x="40" y="586" type="line"/>
      <point x="474" y="586" type="line"/>
      <point x="474" y="452" type="line"/>
      <point x="427" y="484"/>
      <point x="371" y="506"/>
      <point x="302" y="506" type="curve" smooth="yes"/>
      <point x="183" y="506"/>
      <point x="65" y="441"/>
      <point x="65" y="253" type="curve" smooth="yes"/>
      <point x="65" y="65"/>
      <point x="198" y="-4"/>
    </contour>
  </outline>
</glyph>
<glyph name="uniABC3" format="2">
  <advance width="739"/>
  <unicode hex="ABC3"/>
  <outline>
    <contour>
      <point x="647" y="-3" type="curve" smooth="yes"/>
      <point x="664" y="-3"/>
      <point x="684" y="-2"/>
      <point x="699" y="2" type="curve"/>
      <point x="683" y="73" type="line"/>
      <point x="676" y="72"/>
      <point x="667" y="71"/>
      <point x="659" y="71" type="curve" smooth="yes"/>
      <point x="591" y="71"/>
      <point x="563" y="113"/>
      <point x="563" y="165" type="curve" smooth="yes"/>
      <point x="563" y="214"/>
      <point x="597" y="266"/>
      <point x="659" y="272" type="curve"/>
      <point x="659" y="343" type="line"/>
      <point x="392" y="343" type="line"/>
      <point x="392" y="586" type="line"/>
      <point x="691" y="586" type="line"/>
      <point x="691" y="659" type="line"/>
      <point x="55" y="659" type="line"/>
      <point x="55" y="586" type="line"/>
      <point x="90" y="586" type="line"/>
      <point x="90" y="0" type="line"/>
      <point x="171" y="0" type="line"/>
      <point x="171" y="272" type="line"/>
      <point x="311" y="272" type="line"/>
      <point x="311" y="0" type="line"/>
      <point x="392" y="0" type="line"/>
      <point x="392" y="272" type="line"/>
      <point x="540" y="272" type="line"/>
      <point x="504" y="242"/>
      <point x="487" y="199"/>
      <point x="487" y="150" type="curve" smooth="yes"/>
      <point x="487" y="62"/>
      <point x="543" y="-3"/>
    </contour>
    <contour>
      <point x="171" y="343" type="line"/>
      <point x="171" y="586" type="line"/>
      <point x="311" y="586" type="line"/>
      <point x="311" y="343" type="line"/>
    </contour>
  </outline>
</glyph>
<glyph name="uniABC4" format="2">
  <advance width="981"/>
  <unicode hex="ABC4"/>
  <outline>
    <contour>
      <point x="53" y="0" type="line"/>
      <point x="207" y="26"/>
      <point x="280" y="148"/>
      <point x="280" y="272" type="curve" smooth="yes"/>
      <point x="280" y="373"/>
      <point x="232" y="486"/>
      <point x="148" y="586" type="curve"/>
      <point x="356" y="586" type="line"/>
      <point x="356" y="0" type="line"/>
      <point x="438" y="0" type="line"/>
      <point x="438" y="586" type="line"/>
      <point x="543" y="586" type="line"/>
      <point x="543" y="0" type="line"/>
      <point x="625" y="0" type="line"/>
      <point x="625" y="586" type="line"/>
      <point x="832" y="586" type="line"/>
      <point x="749" y="486"/>
      <point x="701" y="373"/>
      <point x="701" y="272" type="curve" smooth="yes"/>
      <point x="701" y="148"/>
      <point x="774" y="26"/>
      <point x="929" y="0" type="curve"/>
      <point x="951" y="73" type="line"/>
      <point x="823" y="100"/>
      <point x="783" y="198"/>
      <point x="783" y="285" type="curve" smooth="yes"/>
      <point x="783" y="381"/>
      <point x="832" y="492"/>
      <point x="936" y="586" type="curve"/>
      <point x="936" y="659" type="line"/>
      <point x="45" y="659" type="line"/>
      <point x="45" y="586" type="line"/>
      <point x="145" y="493"/>
      <point x="198" y="377"/>
      <point x="198" y="285" type="curve" smooth="yes"/>
      <point x="198" y="198"/>
      <point x="159" y="100"/>
      <point x="30" y="73" type="curve"/>
    </contour>
  </outline>
</glyph>
<glyph name="uniABC5" format="2">
  <advance width="725"/>
  <unicode hex="ABC5"/>
  <outline>
    <contour>
      <point x="377" y="-7" type="curve" smooth="yes"/>
      <point x="475" y="-7"/>
      <point x="565" y="33"/>
      <point x="640" y="98" type="curve"/>
      <point x="591" y="159" type="line"/>
      <point x="532" y="110"/>
      <point x="465" y="74"/>
      <point x="379" y="74" type="curve" smooth="yes"/>
      <point x="263" y="74"/>
      <point x="161" y="151"/>
      <point x="161" y="322" type="curve" smooth="yes"/>
      <point x="161" y="445"/>
      <point x="197" y="546"/>
      <point x="213" y="586" type="curve"/>
      <point x="549" y="586" type="line"/>
      <point x="433" y="371" type="line"/>
      <point x="507" y="332" type="line"/>
      <point x="639" y="586" type="line"/>
      <point x="689" y="586" type="line"/>
      <point x="689" y="659" type="line"/>
      <point x="50" y="659" type="line"/>
      <point x="50" y="586" type="line"/>
      <point x="117" y="586" type="line"/>
      <point x="97" y="523"/>
      <point x="72" y="424"/>
      <point x="72" y="322" type="curve" smooth="yes"/>
      <point x="72" y="102"/>
      <point x="217" y="-7"/>
    </contour>
  </outline>
</glyph>
<glyph name="uniABC6" format="2">
  <advance width="781"/>
  <unicode hex="ABC6"/>
  <outline>
    <contour>
      <point x="53" y="0" type="line"/>
      <point x="205" y="24"/>
      <point x="273" y="145"/>
      <point x="275" y="266" type="curve"/>
      <point x="506" y="266" type="line"/>
      <point x="508" y="145"/>
      <point x="575" y="24"/>
      <point x="728" y="0" type="curve"/>
      <point x="751" y="73" type="line"/>
      <point x="624" y="100"/>
      <point x="587" y="198"/>
      <point x="587" y="285" type="curve" smooth="yes"/>
      <point x="587" y="377"/>
      <point x="645" y="499"/>
      <point x="739" y="586" type="curve"/>
      <point x="739" y="659" type="line"/>
      <point x="41" y="659" type="line"/>
      <point x="41" y="586" type="line"/>
      <point x="146" y="493"/>
      <point x="195" y="381"/>
      <point x="195" y="285" type="curve" smooth="yes"/>
      <point x="195" y="198"/>
      <point x="158" y="100"/>
      <point x="30" y="73" type="curve"/>
    </contour>
    <contour>
      <point x="268" y="338" type="line"/>
      <point x="253" y="421"/>
      <point x="210" y="507"/>
      <point x="145" y="586" type="curve"/>
      <point x="640" y="586" type="line"/>
      <point x="574" y="507"/>
      <point x="529" y="421"/>
      <point x="513" y="338" type="curve"/>
    </contour>
  </outline>
</glyph>
<glyph name="uniABC7" format="2">
  <advance width="785"/>
  <unicode hex="ABC7"/>
  <outline>
    <contour>
      <point x="194" y="-3" type="curve" smooth="yes"/>
      <point x="310" y="-3"/>
      <point x="382" y="86"/>
      <point x="382" y="209" type="curve" smooth="yes"/>
      <point x="382" y="335"/>
      <point x="300" y="471"/>
      <point x="179" y="586" type="curve"/>
      <point x="350" y="586" type="line" smooth="yes"/>
      <point x="391" y="586"/>
      <point x="456" y="583"/>
      <point x="509" y="563" type="curve"/>
      <point x="473" y="527"/>
      <point x="437" y="469"/>
      <point x="437" y="416" type="curve" smooth="yes"/>
      <point x="437" y="300"/>
      <point x="518" y="260"/>
      <point x="593" y="260" type="curve" smooth="yes"/>
      <point x="667" y="260"/>
      <point x="745" y="304"/>
      <point x="745" y="408" type="curve" smooth="yes"/>
      <point x="745" y="491"/>
      <point x="696" y="543"/>
      <point x="630" y="586" type="curve"/>
      <point x="650" y="605"/>
      <point x="673" y="625"/>
      <point x="717" y="661" type="curve"/>
      <point x="666" y="716" type="line"/>
      <point x="644" y="698"/>
      <point x="619" y="676"/>
      <point x="561" y="621" type="curve"/>
      <point x="492" y="650"/>
      <point x="419" y="659"/>
      <point x="357" y="659" type="curve" smooth="yes"/>
      <point x="59" y="659" type="line"/>
      <point x="59" y="586" type="line"/>
      <point x="188" y="493"/>
      <point x="297" y="347"/>
      <point x="297" y="213" type="curve" smooth="yes"/>
      <point x="297" y="138"/>
      <point x="263" y="72"/>
      <point x="190" y="72" type="curve" smooth="yes"/>
      <point x="157" y="72"/>
      <point x="120" y="92"/>
      <point x="91" y="132" type="curve"/>
      <point x="30" y="79" type="line"/>
      <point x="69" y="30"/>
      <point x="123" y="-3"/>
    </contour>
    <contour>
      <point x="593" y="325" type="curve" smooth="yes"/>
      <point x="539" y="325"/>
      <point x="514" y="363"/>
      <point x="514" y="416" type="curve" smooth="yes"/>
      <point x="514" y="458"/>
      <point x="540" y="501"/>
      <point x="576" y="539" type="curve"/>
      <point x="627" y="511"/>
      <point x="669" y="466"/>
      <point x="669" y="408" type="curve" smooth="yes"/>
      <point x="669" y="352"/>
      <point x="633" y="325"/>
    </contour>
  </outline>
</glyph>
<glyph name="uniABC8" format="2">
  <advance width="734"/>
  <unicode hex="ABC8"/>
  <outline>
    <contour>
      <point x="52" y="0" type="line"/>
      <point x="167" y="24"/>
      <point x="239" y="94"/>
      <point x="266" y="201" type="curve" smooth="yes"/>
      <point x="301" y="340"/>
      <point x="353" y="382"/>
      <point x="422" y="382" type="curve" smooth="yes"/>
      <point x="475" y="382"/>
      <point x="509" y="350"/>
      <point x="509" y="306" type="curve" smooth="yes"/>
      <point x="509" y="292"/>
      <point x="492" y="208"/>
      <point x="492" y="184" type="curve" smooth="yes"/>
      <point x="492" y="112"/>
      <point x="543" y="80"/>
      <point x="597" y="80" type="curve" smooth="yes"/>
      <point x="627" y="80"/>
      <point x="661" y="90"/>
      <point x="688" y="117" type="curve"/>
      <point x="638" y="170" type="line"/>
      <point x="626" y="158"/>
      <point x="612" y="153"/>
      <point x="601" y="153" type="curve" smooth="yes"/>
      <point x="583" y="153"/>
      <point x="572" y="163"/>
      <point x="572" y="184" type="curve" smooth="yes"/>
      <point x="572" y="222"/>
      <point x="591" y="265"/>
      <point x="591" y="306" type="curve" smooth="yes"/>
      <point x="591" y="406"/>
      <point x="508" y="453"/>
      <point x="425" y="453" type="curve" smooth="yes"/>
      <point x="351" y="453"/>
      <point x="296" y="425"/>
      <point x="258" y="345" type="curve"/>
      <point x="243" y="430"/>
      <point x="188" y="515"/>
      <point x="129" y="586" type="curve"/>
      <point x="694" y="586" type="line"/>
      <point x="694" y="659" type="line"/>
      <point x="34" y="659" type="line"/>
      <point x="34" y="586" type="line"/>
      <point x="132" y="495"/>
      <point x="193" y="367"/>
      <point x="193" y="274" type="curve" smooth="yes"/>
      <point x="193" y="181"/>
      <point x="149" y="102"/>
      <point x="29" y="72" type="curve"/>
    </contour>
  </outline>
</glyph>
<glyph name="uniABC9" format="2">
  <advance width="896"/>
  <unicode hex="ABC9"/>
  <outline>
    <contour>
      <point x="85" y="0" type="line"/>
      <point x="804" y="0" type="line"/>
      <point x="804" y="587" type="line"/>
      <point x="841" y="587" type="line"/>
      <point x="841" y="659" type="line"/>
      <point x="308" y="659" type="line"/>
      <point x="308" y="72" type="line"/>
      <point x="213" y="72" type="line"/>
      <point x="241" y="103"/>
      <point x="260" y="143"/>
      <point x="260" y="189" type="curve" smooth="yes"/>
      <point x="260" y="289"/>
      <point x="191" y="333"/>
      <point x="103" y="333" type="curve" smooth="yes"/>
      <point x="70" y="333"/>
      <point x="38" y="326"/>
      <point x="20" y="318" type="curve"/>
      <point x="46" y="250" type="line"/>
      <point x="59" y="255"/>
      <point x="79" y="261"/>
      <point x="101" y="261" type="curve" smooth="yes"/>
      <point x="153" y="261"/>
      <point x="182" y="228"/>
      <point x="182" y="178" type="curve" smooth="yes"/>
      <point x="182" y="131"/>
      <point x="149" y="85"/>
      <point x="85" y="72" type="curve"/>
    </contour>
    <contour>
      <point x="394" y="72" type="line"/>
      <point x="394" y="587" type="line"/>
      <point x="518" y="587" type="line"/>
      <point x="518" y="72" type="line"/>
    </contour>
    <contour>
      <point x="598" y="72" type="line"/>
      <point x="598" y="587" type="line"/>
      <point x="723" y="587" type="line"/>
      <point x="723" y="72" type="line"/>
    </contour>
  </outline>
</glyph>
<glyph name="uniABCA" format="2">
  <advance width="675"/>
  <unicode hex="ABCA"/>
  <outline>
    <contour>
      <point x="217" y="-3" type="curve" smooth="yes"/>
      <point x="262" y="-3"/>
      <point x="313" y="20"/>
      <point x="346" y="67" type="curve"/>
      <point x="374" y="17"/>
      <point x="422" y="-3"/>
      <point x="473" y="-3" type="curve" smooth="yes"/>
      <point x="576" y="-3"/>
      <point x="629" y="60"/>
      <point x="629" y="147" type="curve" smooth="yes"/>
      <point x="629" y="244"/>
      <point x="547" y="278"/>
      <point x="505" y="287" type="curve"/>
      <point x="490" y="212" type="line"/>
      <point x="510" y="208"/>
      <point x="550" y="193"/>
      <point x="550" y="147" type="curve" smooth="yes"/>
      <point x="550" y="102"/>
      <point x="523" y="69"/>
      <point x="472" y="69" type="curve" smooth="yes"/>
      <point x="426" y="69"/>
      <point x="385" y="96"/>
      <point x="385" y="161" type="curve" smooth="yes"/>
      <point x="385" y="640" type="line"/>
      <point x="305" y="640" type="line"/>
      <point x="305" y="161" type="line" smooth="yes"/>
      <point x="305" y="98"/>
      <point x="264" y="69"/>
      <point x="220" y="69" type="curve" smooth="yes"/>
      <point x="166" y="69"/>
      <point x="141" y="101"/>
      <point x="141" y="147" type="curve" smooth="yes"/>
      <point x="141" y="192"/>
      <point x="178" y="208"/>
      <point x="198" y="212" type="curve"/>
      <point x="184" y="287" type="line"/>
      <point x="142" y="278"/>
      <point x="62" y="244"/>
      <point x="62" y="147" type="curve" smooth="yes"/>
      <point x="62" y="60"/>
      <point x="113" y="-3"/>
    </contour>
    <contour>
      <point x="42" y="585" type="line"/>
      <point x="631" y="585" type="line"/>
      <point x="631" y="659" type="line"/>
      <point x="42" y="659" type="line"/>
    </contour>
  </outline>
</glyph>
<glyph name="uniABCB" format="2">
  <advance width="820"/>
  <unicode hex="ABCB"/>
  <outline>
    <contour>
      <point x="52" y="0" type="line"/>
      <point x="153" y="18"/>
      <point x="283" y="88"/>
      <point x="283" y="275" type="curve" smooth="yes"/>
      <point x="283" y="385"/>
      <point x="236" y="488"/>
      <point x="152" y="586" type="curve"/>
      <point x="677" y="586" type="line"/>
      <point x="597" y="497"/>
      <point x="540" y="400"/>
      <point x="540" y="281" type="curve" smooth="yes"/>
      <point x="540" y="274"/>
      <point x="540" y="269"/>
      <point x="541" y="260" type="curve"/>
      <point x="503" y="307"/>
      <point x="467" y="361"/>
      <point x="433" y="414" type="curve"/>
      <point x="366" y="367" type="line"/>
      <point x="450" y="244"/>
      <point x="590" y="43"/>
      <point x="767" y="0" type="curve"/>
      <point x="790" y="73" type="line"/>
      <point x="670" y="104"/>
      <point x="618" y="186"/>
      <point x="618" y="271" type="curve" smooth="yes"/>
      <point x="618" y="370"/>
      <point x="673" y="483"/>
      <point x="780" y="588" type="curve"/>
      <point x="780" y="659" type="line"/>
      <point x="45" y="659" type="line"/>
      <point x="45" y="588" type="line"/>
      <point x="141" y="497"/>
      <point x="201" y="377"/>
      <point x="201" y="281" type="curve" smooth="yes"/>
      <point x="201" y="193"/>
      <point x="158" y="107"/>
      <point x="30" y="80" type="curve"/>
    </contour>
  </outline>
</glyph>
<glyph name="uniABCC" format="2">
  <advance width="817"/>
  <unicode hex="ABCC"/>
  <outline>
    <contour>
      <point x="129" y="-5" type="line"/>
      <point x="344" y="228" type="line"/>
      <point x="344" y="311" type="line"/>
      <point x="328" y="311" type="line" smooth="yes"/>
      <point x="227" y="311"/>
      <point x="159" y="356"/>
      <point x="159" y="449" type="curve" smooth="yes"/>
      <point x="159" y="537"/>
      <point x="228" y="586"/>
      <point x="352" y="586" type="curve" smooth="yes"/>
      <point x="456" y="586" type="line" smooth="yes"/>
      <point x="580" y="586"/>
      <point x="654" y="536"/>
      <point x="654" y="446" type="curve" smooth="yes"/>
      <point x="654" y="356"/>
      <point x="580" y="311"/>
      <point x="481" y="311" type="curve" smooth="yes"/>
      <point x="467" y="311" type="line"/>
      <point x="467" y="232" type="line"/>
      <point x="586" y="72" type="line" smooth="yes"/>
      <point x="623" y="22"/>
      <point x="666" y="-5"/>
      <point x="708" y="-5" type="curve" smooth="yes"/>
      <point x="726" y="-5"/>
      <point x="744" y="-4"/>
      <point x="765" y="4" type="curve"/>
      <point x="750" y="78" type="line"/>
      <point x="736" y="73"/>
      <point x="723" y="70"/>
      <point x="715" y="70" type="curve" smooth="yes"/>
      <point x="686" y="70"/>
      <point x="666" y="93"/>
      <point x="641" y="124" type="curve" smooth="yes"/>
      <point x="543" y="248" type="line"/>
      <point x="653" y="264"/>
      <point x="735" y="339"/>
      <point x="735" y="439" type="curve" smooth="yes"/>
      <point x="735" y="506"/>
      <point x="697" y="563"/>
      <point x="647" y="586" type="curve"/>
      <point x="767" y="586" type="line"/>
      <point x="767" y="659" type="line"/>
      <point x="50" y="659" type="line"/>
      <point x="50" y="586" type="line"/>
      <point x="162" y="586" type="line"/>
      <point x="112" y="564"/>
      <point x="77" y="509"/>
      <point x="77" y="445" type="curve" smooth="yes"/>
      <point x="77" y="319"/>
      <point x="179" y="261"/>
      <point x="264" y="248" type="curve"/>
      <point x="68" y="52" type="line"/>
    </contour>
  </outline>
</glyph>
<glyph name="uniABCD" format="2">
  <advance width="721"/>
  <unicode hex="ABCD"/>
  <outline>
    <contour>
      <point x="99" y="0" type="curve" smooth="yes"/>
      <point x="207" y="0"/>
      <point x="290" y="57"/>
      <point x="337" y="252" type="curve" smooth="yes"/>
      <point x="375" y="411"/>
      <point x="434" y="454"/>
      <point x="494" y="454" type="curve" smooth="yes"/>
      <point x="544" y="454"/>
      <point x="581" y="419"/>
      <point x="581" y="349" type="curve" smooth="yes"/>
      <point x="581" y="279"/>
      <point x="549" y="245"/>
      <point x="514" y="245" type="curve" smooth="yes"/>
      <point x="481" y="245"/>
      <point x="454" y="255"/>
      <point x="437" y="264" type="curve"/>
      <point x="408" y="200" type="line"/>
      <point x="435" y="186"/>
      <point x="468" y="176"/>
      <point x="514" y="176" type="curve" smooth="yes"/>
      <point x="581" y="176"/>
      <point x="658" y="223"/>
      <point x="658" y="351" type="curve" smooth="yes"/>
      <point x="658" y="481"/>
      <point x="573" y="524"/>
      <point x="495" y="524" type="curve" smooth="yes"/>
      <point x="414" y="524"/>
      <point x="319" y="468"/>
      <point x="271" y="287" type="curve" smooth="yes"/>
      <point x="224" y="111"/>
      <point x="180" y="72"/>
      <point x="87" y="72" type="curve" smooth="yes"/>
      <point x="80" y="72"/>
      <point x="76" y="72"/>
      <point x="65" y="73" type="curve"/>
      <point x="57" y="2" type="line"/>
      <point x="71" y="0"/>
      <point x="86" y="0"/>
    </contour>
    <contour>
      <point x="40" y="586" type="line"/>
      <point x="681" y="586" type="line"/>
      <point x="681" y="659" type="line"/>
      <point x="40" y="659" type="line"/>
    </contour>
  </outline>
</glyph>
<glyph name="uniABCE" format="2">
  <advance width="787"/>
  <unicode hex="ABCE"/>
  <outline>
    <contour>
      <point x="114" y="0" type="curve"/>
      <point x="196" y="0" type="line"/>
      <point x="197" y="43"/>
      <point x="215" y="99"/>
      <point x="288" y="99" type="curve" smooth="yes"/>
      <point x="344" y="99"/>
      <point x="370" y="54"/>
      <point x="372" y="0" type="curve"/>
      <point x="454" y="0" type="line"/>
      <point x="455" y="50"/>
      <point x="466" y="96"/>
      <point x="526" y="96" type="curve" smooth="yes"/>
      <point x="573" y="96"/>
      <point x="590" y="54"/>
      <point x="592" y="0" type="curve"/>
      <point x="679" y="0" type="line"/>
      <point x="699" y="27"/>
      <point x="720" y="72"/>
      <point x="720" y="120" type="curve" smooth="yes"/>
      <point x="720" y="166"/>
      <point x="708" y="204"/>
      <point x="640" y="290" type="curve"/>
      <point x="699" y="327"/>
      <point x="734" y="367"/>
      <point x="734" y="426" type="curve" smooth="yes"/>
      <point x="734" y="494"/>
      <point x="675" y="534"/>
      <point x="605" y="534" type="curve" smooth="yes"/>
      <point x="530" y="534"/>
      <point x="476" y="494"/>
      <point x="476" y="427" type="curve" smooth="yes"/>
      <point x="476" y="392"/>
      <point x="497" y="353"/>
      <point x="527" y="320" type="curve"/>
      <point x="495" y="311"/>
      <point x="454" y="307"/>
      <point x="419" y="307" type="curve" smooth="yes"/>
      <point x="257" y="307"/>
      <point x="158" y="385"/>
      <point x="157" y="534" type="curve" smooth="yes"/>
      <point x="157" y="555"/>
      <point x="158" y="573"/>
      <point x="159" y="586" type="curve"/>
      <point x="737" y="586" type="line"/>
      <point x="737" y="659" type="line"/>
      <point x="50" y="659" type="line"/>
      <point x="50" y="586" type="line"/>
      <point x="78" y="586" type="line"/>
      <point x="76" y="570"/>
      <point x="75" y="551"/>
      <point x="75" y="530" type="curve" smooth="yes"/>
      <point x="76" y="351"/>
      <point x="204" y="235"/>
      <point x="420" y="235" type="curve" smooth="yes"/>
      <point x="473" y="235"/>
      <point x="526" y="244"/>
      <point x="570" y="261" type="curve"/>
      <point x="631" y="188"/>
      <point x="648" y="144"/>
      <point x="648" y="120" type="curve" smooth="yes"/>
      <point x="648" y="105"/>
      <point x="645" y="89"/>
      <point x="640" y="76" type="curve"/>
      <point x="620" y="146"/>
      <point x="569" y="167"/>
      <point x="526" y="167" type="curve" smooth="yes"/>
      <point x="469" y="167"/>
      <point x="426" y="136"/>
      <point x="413" y="87" type="curve"/>
      <point x="394" y="146"/>
      <point x="339" y="170"/>
      <point x="281" y="170" type="curve" smooth="yes"/>
      <point x="135" y="170"/>
      <point x="116" y="40"/>
    </contour>
    <contour>
      <point x="597" y="343" type="curve"/>
      <point x="570" y="368"/>
      <point x="554" y="399"/>
      <point x="554" y="420" type="curve" smooth="yes"/>
      <point x="554" y="446"/>
      <point x="571" y="462"/>
      <point x="605" y="462" type="curve" smooth="yes"/>
      <point x="638" y="462"/>
      <point x="654" y="442"/>
      <point x="654" y="418" type="curve" smooth="yes"/>
      <point x="654" y="390"/>
      <point x="634" y="364"/>
    </contour>
  </outline>
</glyph>
<glyph name="uniABCF" format="2">
  <advance width="800"/>
  <unicode hex="ABCF"/>
  <outline>
    <contour>
      <point x="572" y="-5" type="curve" smooth="yes"/>
      <point x="672" y="-5"/>
      <point x="750" y="53"/>
      <point x="750" y="187" type="curve" smooth="yes"/>
      <point x="750" y="315"/>
      <point x="644" y="367"/>
      <point x="516" y="405" type="curve" smooth="yes"/>
      <point x="403" y="439"/>
      <point x="283" y="465"/>
      <point x="218" y="530" type="curve" smooth="yes"/>
      <point x="183" y="565"/>
      <point x="155" y="601"/>
      <point x="124" y="649" type="curve"/>
      <point x="66" y="587" type="line"/>
      <point x="170" y="495"/>
      <point x="238" y="359"/>
      <point x="238" y="263" type="curve" smooth="yes"/>
      <point x="238" y="180"/>
      <point x="193" y="97"/>
      <point x="50" y="78" type="curve"/>
      <point x="73" y="0" type="line"/>
      <point x="233" y="25"/>
      <point x="319" y="129"/>
      <point x="319" y="256" type="curve" smooth="yes"/>
      <point x="319" y="301"/>
      <point x="307" y="351"/>
      <point x="275" y="410" type="curve"/>
      <point x="330" y="377"/>
      <point x="403" y="357"/>
      <point x="488" y="332" type="curve" smooth="yes"/>
      <point x="601" y="299"/>
      <point x="668" y="260"/>
      <point x="668" y="185" type="curve" smooth="yes"/>
      <point x="668" y="112"/>
      <point x="634" y="70"/>
      <point x="572" y="70" type="curve" smooth="yes"/>
      <point x="537" y="70"/>
      <point x="505" y="89"/>
      <point x="490" y="100" type="curve"/>
      <point x="444" y="38" type="line"/>
      <point x="467" y="18"/>
      <point x="517" y="-5"/>
    </contour>
    <contour>
      <point x="65" y="586" type="line"/>
      <point x="745" y="586" type="line"/>
      <point x="745" y="659" type="line"/>
      <point x="65" y="659" type="line"/>
    </contour>
  </outline>
</glyph>
<glyph name="uniABD0" format="2">
  <advance width="758"/>
  <unicode hex="ABD0"/>
  <outline>
    <contour>
      <point x="140" y="-13" type="curve"/>
      <point x="172" y="11"/>
      <point x="228" y="34"/>
      <point x="310" y="34" type="curve" smooth="yes"/>
      <point x="401" y="34"/>
      <point x="449" y="-2"/>
      <point x="547" y="-2" type="curve" smooth="yes"/>
      <point x="629" y="-2"/>
      <point x="678" y="34"/>
      <point x="708" y="68" type="curve"/>
      <point x="657" y="125" type="line"/>
      <point x="630" y="95"/>
      <point x="602" y="72"/>
      <point x="547" y="72" type="curve" smooth="yes"/>
      <point x="449" y="72"/>
      <point x="406" y="108"/>
      <point x="308" y="108" type="curve" smooth="yes"/>
      <point x="271" y="108"/>
      <point x="236" y="101"/>
      <point x="202" y="92" type="curve"/>
      <point x="226" y="145"/>
      <point x="247" y="213"/>
      <point x="247" y="291" type="curve" smooth="yes"/>
      <point x="247" y="296"/>
      <point x="247" y="302"/>
      <point x="246" y="307" type="curve"/>
      <point x="267" y="315"/>
      <point x="297" y="324"/>
      <point x="333" y="324" type="curve" smooth="yes"/>
      <point x="401" y="324"/>
      <point x="451" y="296"/>
      <point x="508" y="296" type="curve" smooth="yes"/>
      <point x="565" y="296"/>
      <point x="611" y="311"/>
      <point x="654" y="342" type="curve"/>
      <point x="620" y="409" type="line"/>
      <point x="585" y="382"/>
      <point x="543" y="368"/>
      <point x="508" y="368" type="curve" smooth="yes"/>
      <point x="455" y="368"/>
      <point x="398" y="398"/>
      <point x="333" y="398" type="curve" smooth="yes"/>
      <point x="293" y="398"/>
      <point x="261" y="389"/>
      <point x="236" y="380" type="curve"/>
      <point x="216" y="463"/>
      <point x="174" y="541"/>
      <point x="147" y="586" type="curve"/>
      <point x="680" y="586" type="line"/>
      <point x="680" y="659" type="line"/>
      <point x="50" y="659" type="line"/>
      <point x="50" y="586" type="line"/>
      <point x="86" y="543"/>
      <point x="161" y="427"/>
      <point x="161" y="290" type="curve" smooth="yes"/>
      <point x="161" y="173"/>
      <point x="103" y="73"/>
      <point x="71" y="23" type="curve"/>
      <point x="97" y="8"/>
      <point x="115" y="-1"/>
    </contour>
  </outline>
</glyph>
<glyph name="uniABD1" format="2">
  <advance width="792"/>
  <unicode hex="ABD1"/>
  <outline>
    <contour>
      <point x="456" y="-4" type="curve" smooth="yes"/>
      <point x="573" y="-4"/>
      <point x="674" y="27"/>
      <point x="762" y="87" type="curve"/>
      <point x="714" y="151" type="line"/>
      <point x="627" y="88"/>
      <point x="544" y="70"/>
      <point x="455" y="70" type="curve" smooth="yes"/>
      <point x="317" y="70"/>
      <point x="147" y="137"/>
      <point x="147" y="377" type="curve" smooth="yes"/>
      <point x="147" y="483"/>
      <point x="177" y="581"/>
      <point x="199" y="626" type="curve"/>
      <point x="115" y="650" type="line"/>
      <point x="112" y="645"/>
      <point x="63" y="542"/>
      <point x="63" y="377" type="curve" smooth="yes"/>
      <point x="63" y="78"/>
      <point x="291" y="-4"/>
    </contour>
    <contour>
      <point x="308" y="40" type="line"/>
      <point x="390" y="40" type="line"/>
      <point x="390" y="640" type="line"/>
      <point x="308" y="640" type="line"/>
    </contour>
    <contour>
      <point x="508" y="48" type="line"/>
      <point x="590" y="48" type="line"/>
      <point x="590" y="640" type="line"/>
      <point x="508" y="640" type="line"/>
    </contour>
    <contour>
      <point x="50" y="586" type="line"/>
      <point x="752" y="586" type="line"/>
      <point x="752" y="659" type="line"/>
      <point x="50" y="659" type="line"/>
    </contour>
  </outline>
</glyph>
<glyph name="uniABD2" format="2">
  <advance width="802"/>
  <unicode hex="ABD2"/>
  <outline>
    <contour>
      <point x="117" y="0" type="line"/>
      <point x="198" y="0" type="line"/>
      <point x="198" y="586" type="line"/>
      <point x="315" y="586" type="line"/>
      <point x="315" y="0" type="line"/>
      <point x="398" y="0" type="line"/>
      <point x="398" y="586" type="line"/>
      <point x="505" y="586" type="line"/>
      <point x="505" y="393" type="line" smooth="yes"/>
      <point x="505" y="333"/>
      <point x="524" y="255"/>
      <point x="636" y="255" type="curve" smooth="yes"/>
      <point x="723" y="255"/>
      <point x="761" y="319"/>
      <point x="772" y="395" type="curve"/>
      <point x="696" y="415" type="line"/>
      <point x="688" y="344"/>
      <point x="667" y="326"/>
      <point x="637" y="326" type="curve" smooth="yes"/>
      <point x="595" y="326"/>
      <point x="583" y="351"/>
      <point x="583" y="388" type="curve" smooth="yes"/>
      <point x="583" y="587" type="line"/>
      <point x="743" y="587" type="line"/>
      <point x="743" y="659" type="line"/>
      <point x="55" y="659" type="line"/>
      <point x="55" y="586" type="line"/>
      <point x="117" y="586" type="line"/>
    </contour>
  </outline>
</glyph>
<glyph name="uniABD3" format="2">
  <advance width="689"/>
  <unicode hex="ABD3"/>
  <outline>
    <contour>
      <point x="451" y="-7" type="curve" smooth="yes"/>
      <point x="497" y="-7"/>
      <point x="549" y="1"/>
      <point x="599" y="38" type="curve"/>
      <point x="562" y="101" type="line"/>
      <point x="520" y="75"/>
      <point x="484" y="67"/>
      <point x="458" y="67" type="curve" smooth="yes"/>
      <point x="415" y="67"/>
      <point x="352" y="90"/>
      <point x="352" y="174" type="curve" smooth="yes"/>
      <point x="352" y="237"/>
      <point x="397" y="284"/>
      <point x="471" y="295" type="curve" smooth="yes"/>
      <point x="562" y="308" type="line"/>
      <point x="538" y="387" type="line"/>
      <point x="175" y="332" type="line"/>
      <point x="174" y="337" type="line"/>
      <point x="586" y="586" type="line"/>
      <point x="649" y="586" type="line"/>
      <point x="649" y="659" type="line"/>
      <point x="40" y="659" type="line"/>
      <point x="40" y="586" type="line"/>
      <point x="443" y="586" type="line"/>
      <point x="84" y="371" type="line"/>
      <point x="141" y="251" type="line"/>
      <point x="321" y="279" type="line"/>
      <point x="288" y="253"/>
      <point x="270" y="212"/>
      <point x="270" y="166" type="curve" smooth="yes"/>
      <point x="270" y="31"/>
      <point x="377" y="-7"/>
    </contour>
  </outline>
</glyph>
<glyph name="uniABD4" format="2">
  <advance width="819"/>
  <unicode hex="ABD4"/>
  <outline>
    <contour>
      <point x="80" y="0" type="line"/>
      <point x="551" y="0" type="line"/>
      <point x="551" y="472" type="line" smooth="yes"/>
      <point x="551" y="561"/>
      <point x="566" y="605"/>
      <point x="632" y="605" type="curve" smooth="yes"/>
      <point x="687" y="605"/>
      <point x="707" y="552"/>
      <point x="708" y="449" type="curve"/>
      <point x="789" y="460" type="line"/>
      <point x="787" y="590"/>
      <point x="742" y="681"/>
      <point x="635" y="681" type="curve" smooth="yes"/>
      <point x="557" y="681"/>
      <point x="512" y="639"/>
      <point x="497" y="580" type="curve"/>
      <point x="455" y="645"/>
      <point x="401" y="672"/>
      <point x="314" y="672" type="curve" smooth="yes"/>
      <point x="136" y="672"/>
      <point x="80" y="545"/>
      <point x="80" y="418" type="curve" smooth="yes"/>
    </contour>
    <contour>
      <point x="163" y="71" type="line"/>
      <point x="163" y="282" type="line"/>
      <point x="469" y="282" type="line"/>
      <point x="469" y="71" type="line"/>
    </contour>
    <contour>
      <point x="163" y="353" type="line"/>
      <point x="163" y="431" type="line" smooth="yes"/>
      <point x="163" y="515"/>
      <point x="200" y="596"/>
      <point x="315" y="596" type="curve" smooth="yes"/>
      <point x="431" y="596"/>
      <point x="469" y="517"/>
      <point x="469" y="440" type="curve" smooth="yes"/>
      <point x="469" y="353" type="line"/>
    </contour>
  </outline>
</glyph>
<glyph name="uniABD5" format="2">
  <advance width="696"/>
  <unicode hex="ABD5"/>
  <outline>
    <contour>
      <point x="349" y="-9" type="curve" smooth="yes"/>
      <point x="433" y="-9"/>
      <point x="547" y="35"/>
      <point x="547" y="176" type="curve" smooth="yes"/>
      <point x="547" y="262"/>
      <point x="480" y="330"/>
      <point x="400" y="405" type="curve"/>
      <point x="508" y="501"/>
      <point x="654" y="580"/>
      <point x="666" y="586" type="curve"/>
      <point x="666" y="659" type="line"/>
      <point x="30" y="659" type="line"/>
      <point x="30" y="586" type="line"/>
      <point x="55" y="573"/>
      <point x="195" y="495"/>
      <point x="296" y="406" type="curve"/>
      <point x="218" y="331"/>
      <point x="150" y="261"/>
      <point x="150" y="176" type="curve" smooth="yes"/>
      <point x="150" y="35"/>
      <point x="263" y="-9"/>
    </contour>
    <contour>
      <point x="349" y="62" type="curve" smooth="yes"/>
      <point x="292" y="62"/>
      <point x="237" y="100"/>
      <point x="237" y="179" type="curve" smooth="yes"/>
      <point x="237" y="237"/>
      <point x="273" y="295"/>
      <point x="349" y="349" type="curve"/>
      <point x="415" y="296"/>
      <point x="460" y="236"/>
      <point x="460" y="179" type="curve" smooth="yes"/>
      <point x="460" y="100"/>
      <point x="403" y="62"/>
    </contour>
    <contour>
      <point x="349" y="453" type="curve"/>
      <point x="284" y="507"/>
      <point x="218" y="551"/>
      <point x="160" y="586" type="curve"/>
      <point x="536" y="586" type="line"/>
      <point x="471" y="548"/>
      <point x="411" y="508"/>
    </contour>
  </outline>
</glyph>
<glyph name="uniABD6" format="2">
  <advance width="626"/>
  <unicode hex="ABD6"/>
  <outline>
    <contour>
      <point x="343" y="-9" type="curve" smooth="yes"/>
      <point x="437" y="-9"/>
      <point x="494" y="38"/>
      <point x="534" y="74" type="curve"/>
      <point x="484" y="137" type="line"/>
      <point x="446" y="100"/>
      <point x="402" y="68"/>
      <point x="343" y="68" type="curve" smooth="yes"/>
      <point x="281" y="68"/>
      <point x="214" y="105"/>
      <point x="214" y="208" type="curve" smooth="yes"/>
      <point x="214" y="373"/>
      <point x="420" y="492"/>
      <point x="596" y="587" type="curve"/>
      <point x="596" y="659" type="line"/>
      <point x="20" y="659" type="line"/>
      <point x="20" y="586" type="line"/>
      <point x="451" y="586" type="line"/>
      <point x="300" y="505"/>
      <point x="127" y="385"/>
      <point x="127" y="206" type="curve" smooth="yes"/>
      <point x="127" y="61"/>
      <point x="217" y="-9"/>
    </contour>
  </outline>
</glyph>
<glyph name="uniABD7" format="2">
  <advance width="773"/>
  <unicode hex="ABD7"/>
  <outline>
    <contour>
      <point x="236" y="-3" type="curve" smooth="yes"/>
      <point x="322" y="-3"/>
      <point x="424" y="44"/>
      <point x="424" y="187" type="curve" smooth="yes"/>
      <point x="424" y="249"/>
      <point x="398" y="310"/>
      <point x="346" y="381" type="curve"/>
      <point x="420" y="411"/>
      <point x="502" y="433"/>
      <point x="580" y="449" type="curve"/>
      <point x="537" y="379"/>
      <point x="505" y="296"/>
      <point x="505" y="214" type="curve" smooth="yes"/>
      <point x="505" y="69"/>
      <point x="601" y="5"/>
      <point x="706" y="5" type="curve" smooth="yes"/>
      <point x="718" y="5"/>
      <point x="732" y="5"/>
      <point x="743" y="7" type="curve"/>
      <point x="733" y="82" type="line"/>
      <point x="724" y="81"/>
      <point x="715" y="80"/>
      <point x="706" y="80" type="curve" smooth="yes"/>
      <point x="633" y="81"/>
      <point x="587" y="124"/>
      <point x="587" y="217" type="curve" smooth="yes"/>
      <point x="587" y="265"/>
      <point x="603" y="359"/>
      <point x="665" y="443" type="curve"/>
      <point x="583" y="523" type="line"/>
      <point x="476" y="500"/>
      <point x="375" y="473"/>
      <point x="296" y="440" type="curve"/>
      <point x="260" y="481"/>
      <point x="207" y="533"/>
      <point x="152" y="586" type="curve"/>
      <point x="720" y="586" type="line"/>
      <point x="720" y="659" type="line"/>
      <point x="40" y="659" type="line"/>
      <point x="40" y="586" type="line"/>
      <point x="125" y="516"/>
      <point x="178" y="458"/>
      <point x="226" y="406" type="curve"/>
      <point x="123" y="347"/>
      <point x="61" y="273"/>
      <point x="61" y="175" type="curve" smooth="yes"/>
      <point x="61" y="55"/>
      <point x="156" y="-3"/>
    </contour>
    <contour>
      <point x="240" y="74" type="curve" smooth="yes"/>
      <point x="185" y="74"/>
      <point x="143" y="110"/>
      <point x="143" y="173" type="curve" smooth="yes"/>
      <point x="143" y="245"/>
      <point x="197" y="302"/>
      <point x="274" y="346" type="curve"/>
      <point x="318" y="289"/>
      <point x="343" y="238"/>
      <point x="343" y="188" type="curve" smooth="yes"/>
      <point x="343" y="102"/>
      <point x="292" y="74"/>
    </contour>
  </outline>
</glyph>
<glyph name="uniABD8" format="2">
  <advance width="792"/>
  <unicode hex="ABD8"/>
  <outline>
    <contour>
      <point x="669" y="5" type="curve" smooth="yes"/>
      <point x="702" y="5"/>
      <point x="727" y="12"/>
      <point x="752" y="21" type="curve"/>
      <point x="723" y="90" type="line"/>
      <point x="710" y="84"/>
      <point x="691" y="80"/>
      <point x="677" y="80" type="curve" smooth="yes"/>
      <point x="642" y="80"/>
      <point x="592" y="98"/>
      <point x="592" y="163" type="curve" smooth="yes"/>
      <point x="592" y="235"/>
      <point x="654" y="261"/>
      <point x="713" y="262" type="curve"/>
      <point x="713" y="335" type="line"/>
      <point x="389" y="335" type="line"/>
      <point x="389" y="586" type="line"/>
      <point x="732" y="586" type="line"/>
      <point x="732" y="659" type="line"/>
      <point x="40" y="659" type="line"/>
      <point x="40" y="586" type="line"/>
      <point x="306" y="586" type="line"/>
      <point x="306" y="335" type="line"/>
      <point x="249" y="335" type="line" smooth="yes"/>
      <point x="70" y="335"/>
      <point x="47" y="230"/>
      <point x="47" y="175" type="curve" smooth="yes"/>
      <point x="47" y="100"/>
      <point x="103" y="8"/>
      <point x="215" y="8" type="curve" smooth="yes"/>
      <point x="336" y="8"/>
      <point x="389" y="87"/>
      <point x="389" y="197" type="curve" smooth="yes"/>
      <point x="389" y="262" type="line"/>
      <point x="562" y="262" type="line"/>
      <point x="530" y="235"/>
      <point x="513" y="196"/>
      <point x="513" y="157" type="curve" smooth="yes"/>
      <point x="513" y="56"/>
      <point x="582" y="6"/>
    </contour>
    <contour>
      <point x="213" y="83" type="curve" smooth="yes"/>
      <point x="162" y="83"/>
      <point x="129" y="123"/>
      <point x="129" y="174" type="curve" smooth="yes"/>
      <point x="129" y="211"/>
      <point x="152" y="262"/>
      <point x="242" y="262" type="curve" smooth="yes"/>
      <point x="306" y="262" type="line"/>
      <point x="306" y="206" type="line" smooth="yes"/>
      <point x="306" y="117"/>
      <point x="266" y="83"/>
    </contour>
  </outline>
</glyph>
<glyph name="uniABD9" format="2">
  <advance width="628"/>
  <unicode hex="ABD9"/>
  <outline>
    <contour>
      <point x="201" y="-3" type="curve" smooth="yes"/>
      <point x="274" y="-3"/>
      <point x="315" y="35"/>
      <point x="343" y="77" type="curve"/>
      <point x="343" y="0" type="line"/>
      <point x="424" y="0" type="line"/>
      <point x="424" y="585" type="line"/>
      <point x="598" y="585" type="line"/>
      <point x="598" y="659" type="line"/>
      <point x="40" y="659" type="line"/>
      <point x="40" y="585" type="line"/>
      <point x="343" y="585" type="line"/>
      <point x="343" y="177" type="line"/>
      <point x="317" y="119"/>
      <point x="264" y="72"/>
      <point x="208" y="72" type="curve" smooth="yes"/>
      <point x="149" y="72"/>
      <point x="125" y="114"/>
      <point x="125" y="160" type="curve" smooth="yes"/>
      <point x="125" y="212"/>
      <point x="153" y="241"/>
      <point x="194" y="264" type="curve"/>
      <point x="156" y="333" type="line"/>
      <point x="97" y="302"/>
      <point x="44" y="256"/>
      <point x="44" y="160" type="curve" smooth="yes"/>
      <point x="44" y="66"/>
      <point x="105" y="-3"/>
    </contour>
  </outline>
</glyph>
<glyph name="uniABDA" format="2">
  <advance width="658"/>
  <unicode hex="ABDA"/>
  <outline>
    <contour>
      <point x="493" y="0" type="line"/>
      <point x="574" y="0" type="line"/>
      <point x="574" y="586" type="line"/>
      <point x="603" y="586" type="line"/>
      <point x="603" y="659" type="line"/>
      <point x="44" y="659" type="line"/>
      <point x="44" y="586" type="line"/>
      <point x="220" y="586" type="line"/>
      <point x="220" y="341" type="line" smooth="yes"/>
      <point x="220" y="307"/>
      <point x="204" y="281"/>
      <point x="170" y="281" type="curve" smooth="yes"/>
      <point x="136" y="281"/>
      <point x="115" y="295"/>
      <point x="98" y="362" type="curve"/>
      <point x="23" y="337" type="line"/>
      <point x="43" y="255"/>
      <point x="88" y="205"/>
      <point x="173" y="205" type="curve" smooth="yes"/>
      <point x="276" y="205"/>
      <point x="300" y="285"/>
      <point x="300" y="342" type="curve" smooth="yes"/>
      <point x="300" y="586" type="line"/>
      <point x="493" y="586" type="line"/>
    </contour>
  </outline>
</glyph>
<glyph name="uniABDB" format="2">
  <advance width="879"/>
  <unicode hex="ABDB"/>
  <outline>
    <contour>
      <point x="89" y="0" type="line"/>
      <point x="585" y="0" type="line"/>
      <point x="585" y="585" type="line"/>
      <point x="709" y="585" type="line"/>
      <point x="709" y="359" type="line"/>
      <point x="790" y="359" type="line"/>
      <point x="790" y="585" type="line"/>
      <point x="824" y="585" type="line"/>
      <point x="824" y="659" type="line"/>
      <point x="55" y="659" type="line"/>
      <point x="55" y="585" type="line"/>
      <point x="89" y="585" type="line"/>
    </contour>
    <contour>
      <point x="171" y="70" type="line"/>
      <point x="171" y="585" type="line"/>
      <point x="298" y="585" type="line"/>
      <point x="298" y="70" type="line"/>
    </contour>
    <contour>
      <point x="381" y="70" type="line"/>
      <point x="381" y="585" type="line"/>
      <point x="504" y="585" type="line"/>
      <point x="504" y="70" type="line"/>
    </contour>
  </outline>
</glyph>
<glyph name="uniABDC" format="2">
  <advance width="558"/>
  <unicode hex="ABDC"/>
  <outline>
    <contour>
      <point x="389" y="0" type="line"/>
      <point x="469" y="0" type="line"/>
      <point x="469" y="586" type="line"/>
      <point x="503" y="586" type="line"/>
      <point x="503" y="659" type="line"/>
      <point x="40" y="659" type="line"/>
      <point x="40" y="586" type="line"/>
      <point x="389" y="586" type="line"/>
      <point x="389" y="302" type="line"/>
      <point x="385" y="302" type="line"/>
      <point x="321" y="421"/>
      <point x="208" y="435"/>
      <point x="108" y="435" type="curve" smooth="yes"/>
      <point x="73" y="435" type="line"/>
      <point x="73" y="362" type="line"/>
      <point x="108" y="362" type="line" smooth="yes"/>
      <point x="279" y="362"/>
      <point x="389" y="268"/>
      <point x="389" y="39" type="curve" smooth="yes"/>
    </contour>
  </outline>
</glyph>
<glyph name="uniABDD" format="2">
  <advance width="614"/>
  <unicode hex="ABDD"/>
  <outline>
    <contour>
      <point x="89" y="0" type="line"/>
      <point x="170" y="0" type="line"/>
      <point x="170" y="272" type="line"/>
      <point x="310" y="272" type="line"/>
      <point x="310" y="0" type="line"/>
      <point x="391" y="0" type="line"/>
      <point x="391" y="272" type="line"/>
      <point x="542" y="272" type="line"/>
      <point x="542" y="343" type="line"/>
      <point x="391" y="343" type="line"/>
      <point x="391" y="585" type="line"/>
      <point x="574" y="585" type="line"/>
      <point x="574" y="659" type="line"/>
      <point x="55" y="659" type="line"/>
      <point x="55" y="585" type="line"/>
      <point x="89" y="585" type="line"/>
    </contour>
    <contour>
      <point x="170" y="343" type="line"/>
      <point x="170" y="585" type="line"/>
      <point x="310" y="585" type="line"/>
      <point x="310" y="343" type="line"/>
    </contour>
  </outline>
</glyph>
<glyph name="uniABDE" format="2">
  <advance width="820"/>
  <unicode hex="ABDE"/>
  <outline>
    <contour>
      <point x="53" y="0" type="line"/>
      <point x="208" y="26"/>
      <point x="280" y="149"/>
      <point x="280" y="272" type="curve" smooth="yes"/>
      <point x="280" y="373"/>
      <point x="232" y="486"/>
      <point x="150" y="586" type="curve"/>
      <point x="370" y="586" type="line"/>
      <point x="370" y="0" type="line"/>
      <point x="451" y="0" type="line"/>
      <point x="451" y="586" type="line"/>
      <point x="672" y="586" type="line"/>
      <point x="589" y="486"/>
      <point x="540" y="373"/>
      <point x="540" y="272" type="curve" smooth="yes"/>
      <point x="540" y="148"/>
      <point x="614" y="26"/>
      <point x="768" y="0" type="curve"/>
      <point x="790" y="73" type="line"/>
      <point x="662" y="100"/>
      <point x="623" y="198"/>
      <point x="623" y="285" type="curve" smooth="yes"/>
      <point x="623" y="377"/>
      <point x="681" y="494"/>
      <point x="774" y="586" type="curve"/>
      <point x="774" y="659" type="line"/>
      <point x="45" y="659" type="line"/>
      <point x="45" y="586" type="line"/>
      <point x="147" y="494"/>
      <point x="199" y="381"/>
      <point x="199" y="285" type="curve" smooth="yes"/>
      <point x="199" y="198"/>
      <point x="159" y="100"/>
      <point x="30" y="73" type="curve"/>
    </contour>
  </outline>
</glyph>
<glyph name="uniABDF" format="2">
  <advance width="769"/>
  <unicode hex="ABDF"/>
  <outline>
    <contour>
      <point x="397" y="-4" type="curve" smooth="yes"/>
      <point x="517" y="-4"/>
      <point x="626" y="35"/>
      <point x="718" y="98" type="curve"/>
      <point x="670" y="157" type="line"/>
      <point x="583" y="94"/>
      <point x="494" y="70"/>
      <point x="404" y="70" type="curve" smooth="yes"/>
      <point x="268" y="70"/>
      <point x="157" y="147"/>
      <point x="157" y="322" type="curve" smooth="yes"/>
      <point x="157" y="431"/>
      <point x="184" y="533"/>
      <point x="201" y="586" type="curve"/>
      <point x="302" y="586" type="line"/>
      <point x="286" y="535"/>
      <point x="265" y="456"/>
      <point x="265" y="394" type="curve" smooth="yes"/>
      <point x="265" y="262"/>
      <point x="342" y="204"/>
      <point x="443" y="204" type="curve" smooth="yes"/>
      <point x="495" y="204"/>
      <point x="564" y="222"/>
      <point x="618" y="258" type="curve"/>
      <point x="573" y="319" type="line"/>
      <point x="537" y="294"/>
      <point x="487" y="278"/>
      <point x="449" y="278" type="curve" smooth="yes"/>
      <point x="387" y="278"/>
      <point x="345" y="316"/>
      <point x="345" y="393" type="curve" smooth="yes"/>
      <point x="345" y="455"/>
      <point x="376" y="551"/>
      <point x="388" y="586" type="curve"/>
      <point x="595" y="586" type="line"/>
      <point x="514" y="438" type="line"/>
      <point x="587" y="412" type="line"/>
      <point x="678" y="586" type="line"/>
      <point x="739" y="586" type="line"/>
      <point x="739" y="659" type="line"/>
      <point x="50" y="659" type="line"/>
      <point x="50" y="586" type="line"/>
      <point x="112" y="586" type="line"/>
      <point x="94" y="523"/>
      <point x="72" y="423"/>
      <point x="72" y="322" type="curve" smooth="yes"/>
      <point x="72" y="99"/>
      <point x="240" y="-4"/>
    </contour>
  </outline>
</glyph>
<glyph name="uniABE0" format="2">
  <advance width="683"/>
  <unicode hex="ABE0"/>
  <outline>
    <contour>
      <point x="452" y="-3" type="curve" smooth="yes"/>
      <point x="531" y="-3"/>
      <point x="626" y="55"/>
      <point x="626" y="175" type="curve" smooth="yes"/>
      <point x="626" y="281"/>
      <point x="552" y="348"/>
      <point x="437" y="386" type="curve"/>
      <point x="487" y="452"/>
      <point x="564" y="534"/>
      <point x="643" y="614" type="curve"/>
      <point x="588" y="665" type="line"/>
      <point x="495" y="569"/>
      <point x="406" y="473"/>
      <point x="356" y="406" type="curve"/>
      <point x="286" y="421"/>
      <point x="206" y="424"/>
      <point x="121" y="424" type="curve"/>
      <point x="248" y="627" type="line"/>
      <point x="176" y="667" type="line"/>
      <point x="20" y="408" type="line"/>
      <point x="74" y="347" type="line"/>
      <point x="101" y="349"/>
      <point x="126" y="350"/>
      <point x="150" y="350" type="curve" smooth="yes"/>
      <point x="210" y="350"/>
      <point x="264" y="347"/>
      <point x="314" y="340" type="curve"/>
      <point x="280" y="284"/>
      <point x="263" y="231"/>
      <point x="263" y="181" type="curve" smooth="yes"/>
      <point x="263" y="41"/>
      <point x="366" y="-3"/>
    </contour>
    <contour>
      <point x="448" y="74" type="curve" smooth="yes"/>
      <point x="396" y="74"/>
      <point x="346" y="100"/>
      <point x="346" y="182" type="curve" smooth="yes"/>
      <point x="346" y="226"/>
      <point x="361" y="270"/>
      <point x="393" y="321" type="curve"/>
      <point x="485" y="295"/>
      <point x="545" y="248"/>
      <point x="545" y="173" type="curve" smooth="yes"/>
      <point x="545" y="110"/>
      <point x="502" y="74"/>
    </contour>
  </outline>
</glyph>
<glyph name="uniABE1" format="2">
  <advance width="678"/>
  <unicode hex="ABE1"/>
  <outline>
    <contour>
      <point x="89" y="0" type="line"/>
      <point x="585" y="0" type="line"/>
      <point x="585" y="585" type="line"/>
      <point x="623" y="585" type="line"/>
      <point x="623" y="659" type="line"/>
      <point x="55" y="659" type="line"/>
      <point x="55" y="585" type="line"/>
      <point x="89" y="585" type="line"/>
    </contour>
    <contour>
      <point x="173" y="70" type="line"/>
      <point x="173" y="585" type="line"/>
      <point x="297" y="585" type="line"/>
      <point x="297" y="70" type="line"/>
    </contour>
    <contour>
      <point x="378" y="70" type="line"/>
      <point x="378" y="585" type="line"/>
      <point x="502" y="585" type="line"/>
      <point x="502" y="70" type="line"/>
    </contour>
  </outline>
</glyph>
<glyph name="uniABE2" format="2">
  <advance width="777"/>
  <unicode hex="ABE2"/>
  <outline>
    <contour>
      <point x="53" y="0" type="line"/>
      <point x="213" y="25"/>
      <point x="299" y="129"/>
      <point x="299" y="256" type="curve" smooth="yes"/>
      <point x="299" y="267"/>
      <point x="298" y="279"/>
      <point x="297" y="290" type="curve"/>
      <point x="339" y="300"/>
      <point x="392" y="310"/>
      <point x="446" y="310" type="curve" smooth="yes"/>
      <point x="546" y="310"/>
      <point x="646" y="290"/>
      <point x="646" y="176" type="curve" smooth="yes"/>
      <point x="646" y="119"/>
      <point x="611" y="90"/>
      <point x="572" y="90" type="curve" smooth="yes"/>
      <point x="532" y="90"/>
      <point x="505" y="111"/>
      <point x="494" y="178" type="curve"/>
      <point x="414" y="158" type="line"/>
      <point x="429" y="44"/>
      <point x="507" y="17"/>
      <point x="572" y="17" type="curve" smooth="yes"/>
      <point x="633" y="17"/>
      <point x="727" y="57"/>
      <point x="727" y="179" type="curve" smooth="yes"/>
      <point x="727" y="349"/>
      <point x="584" y="382"/>
      <point x="443" y="382" type="curve" smooth="yes"/>
      <point x="387" y="382"/>
      <point x="328" y="371"/>
      <point x="281" y="361" type="curve"/>
      <point x="257" y="436"/>
      <point x="210" y="515"/>
      <point x="148" y="586" type="curve"/>
      <point x="726" y="586" type="line"/>
      <point x="726" y="659" type="line"/>
      <point x="45" y="659" type="line"/>
      <point x="45" y="586" type="line"/>
      <point x="156" y="489"/>
      <point x="218" y="358"/>
      <point x="218" y="263" type="curve" smooth="yes"/>
      <point x="218" y="180"/>
      <point x="173" y="97"/>
      <point x="30" y="78" type="curve"/>
    </contour>
  </outline>
</glyph>
<glyph name="uniABE3" format="2">
  <advance width="265"/>
  <unicode hex="ABE3"/>
  <outline>
    <contour>
      <point x="128" y="510" type="curve" smooth="yes"/>
      <point x="179" y="510"/>
      <point x="232" y="540"/>
      <point x="232" y="607" type="curve" smooth="yes"/>
      <point x="232" y="698"/>
      <point x="117" y="788"/>
      <point x="27" y="841" type="curve"/>
      <point x="-8" y="786" type="line"/>
      <point x="33" y="762"/>
      <point x="71" y="739"/>
      <point x="93" y="714" type="curve"/>
      <point x="52" y="685"/>
      <point x="26" y="655"/>
      <point x="26" y="609" type="curve" smooth="yes"/>
      <point x="26" y="542"/>
      <point x="73" y="510"/>
    </contour>
    <contour>
      <point x="126" y="568" type="curve" smooth="yes"/>
      <point x="105" y="568"/>
      <point x="89" y="583"/>
      <point x="89" y="609" type="curve" smooth="yes"/>
      <point x="89" y="639"/>
      <point x="108" y="659"/>
      <point x="136" y="677" type="curve"/>
      <point x="154" y="661"/>
      <point x="165" y="636"/>
      <point x="165" y="612" type="curve" smooth="yes"/>
      <point x="165" y="582"/>
      <point x="143" y="568"/>
    </contour>
  </outline>
</glyph>
<glyph name="uniABE4" format="2">
  <advance width="399"/>
  <unicode hex="ABE4"/>
  <outline>
    <contour>
      <point x="114" y="0" type="line"/>
      <point x="199" y="0" type="line"/>
      <point x="199" y="582" type="line"/>
      <point x="292" y="584"/>
      <point x="380" y="614"/>
      <point x="380" y="720" type="curve" smooth="yes"/>
      <point x="380" y="809"/>
      <point x="314" y="845"/>
      <point x="248" y="845" type="curve" smooth="yes"/>
      <point x="163" y="845"/>
      <point x="114" y="802"/>
      <point x="114" y="713" type="curve" smooth="yes"/>
      <point x="114" y="659" type="line"/>
      <point x="19" y="659" type="line"/>
      <point x="19" y="582" type="line"/>
      <point x="114" y="582" type="line"/>
    </contour>
    <contour>
      <point x="199" y="659" type="curve"/>
      <point x="199" y="713" type="line" smooth="yes"/>
      <point x="199" y="759"/>
      <point x="215" y="774"/>
      <point x="248" y="774" type="curve" smooth="yes"/>
      <point x="275" y="774"/>
      <point x="296" y="762"/>
      <point x="296" y="724" type="curve" smooth="yes"/>
      <point x="296" y="675"/>
      <point x="258" y="659"/>
    </contour>
  </outline>
</glyph>
<glyph name="uniABE5" format="2">
  <unicode hex="ABE5"/>
  <outline>
    <contour>
      <point x="-121" y="727" type="line"/>
      <point x="-77" y="781" type="line"/>
      <point x="-278" y="952" type="line"/>
      <point x="-328" y="887" type="line"/>
    </contour>
  </outline>
</glyph>
<glyph name="uniABE6" format="2">
  <advance width="307"/>
  <unicode hex="ABE6"/>
  <outline>
    <contour>
      <point x="148" y="413" type="curve" smooth="yes"/>
      <point x="224" y="413"/>
      <point x="286" y="463"/>
      <point x="286" y="535" type="curve" smooth="yes"/>
      <point x="286" y="609"/>
      <point x="224" y="662"/>
      <point x="148" y="662" type="curve" smooth="yes"/>
      <point x="77" y="662"/>
      <point x="16" y="609"/>
      <point x="16" y="535" type="curve" smooth="yes"/>
      <point x="16" y="463"/>
      <point x="77" y="413"/>
    </contour>
    <contour>
      <point x="148" y="477" type="curve" smooth="yes"/>
      <point x="115" y="477"/>
      <point x="89" y="502"/>
      <point x="89" y="538" type="curve" smooth="yes"/>
      <point x="89" y="572"/>
      <point x="115" y="599"/>
      <point x="148" y="599" type="curve" smooth="yes"/>
      <point x="184" y="599"/>
      <point x="210" y="572"/>
      <point x="210" y="538" type="curve" smooth="yes"/>
      <point x="210" y="502"/>
      <point x="184" y="477"/>
    </contour>
  </outline>
</glyph>
<glyph name="uniABE7" format="2">
  <advance width="332"/>
  <unicode hex="ABE7"/>
  <outline>
    <contour>
      <point x="186" y="639" type="curve"/>
      <point x="264" y="658"/>
      <point x="303" y="689"/>
      <point x="303" y="749" type="curve" smooth="yes"/>
      <point x="303" y="803"/>
      <point x="261" y="844"/>
      <point x="207" y="844" type="curve" smooth="yes"/>
      <point x="144" y="844"/>
      <point x="107" y="808"/>
      <point x="107" y="745" type="curve" smooth="yes"/>
      <point x="107" y="723"/>
      <point x="109" y="710"/>
      <point x="115" y="691" type="curve"/>
      <point x="41" y="691"/>
      <point x="0" y="739"/>
      <point x="-1" y="841" type="curve"/>
      <point x="-68" y="841" type="line"/>
      <point x="-65" y="699"/>
      <point x="0" y="635"/>
      <point x="119" y="635" type="curve"/>
      <point x="116" y="600"/>
      <point x="108" y="578"/>
      <point x="61" y="578" type="curve" smooth="yes"/>
      <point x="20" y="578" type="line"/>
      <point x="20" y="509" type="line"/>
      <point x="59" y="509" type="line" smooth="yes"/>
      <point x="105" y="509"/>
      <point x="137" y="518"/>
      <point x="160" y="543" type="curve" smooth="yes"/>
      <point x="177" y="562"/>
      <point x="186" y="583"/>
    </contour>
    <contour>
      <point x="178" y="699" type="curve"/>
      <point x="172" y="716"/>
      <point x="170" y="727"/>
      <point x="170" y="743" type="curve" smooth="yes"/>
      <point x="170" y="770"/>
      <point x="183" y="783"/>
      <point x="207" y="783" type="curve" smooth="yes"/>
      <point x="229" y="783"/>
      <point x="240" y="771"/>
      <point x="240" y="746" type="curve" smooth="yes"/>
      <point x="240" y="723"/>
      <point x="221" y="708"/>
    </contour>
  </outline>
</glyph>
<glyph name="uniABE8" format="2">
  <unicode hex="ABE8"/>
  <outline>
    <contour>
      <point x="-392" y="-200" type="curve"/>
      <point x="-337" y="-200" type="line"/>
      <point x="-338" y="-196"/>
      <point x="-340" y="-179"/>
      <point x="-340" y="-161" type="curve" smooth="yes"/>
      <point x="-340" y="-129"/>
      <point x="-329" y="-114"/>
      <point x="-300" y="-114" type="curve" smooth="yes"/>
      <point x="-279" y="-114"/>
      <point x="-257" y="-126"/>
      <point x="-257" y="-154" type="curve" smooth="yes"/>
      <point x="-257" y="-200" type="line"/>
      <point x="-199" y="-200" type="line"/>
      <point x="-199" y="-154" type="line" smooth="yes"/>
      <point x="-199" y="-129"/>
      <point x="-180" y="-114"/>
      <point x="-159" y="-114" type="curve" smooth="yes"/>
      <point x="-129" y="-114"/>
      <point x="-118" y="-129"/>
      <point x="-118" y="-161" type="curve" smooth="yes"/>
      <point x="-118" y="-173"/>
      <point x="-120" y="-191"/>
      <point x="-121" y="-200" type="curve"/>
      <point x="-66" y="-200" type="line"/>
      <point x="-65" y="-197"/>
      <point x="-62" y="-178"/>
      <point x="-62" y="-158" type="curve" smooth="yes"/>
      <point x="-62" y="-113"/>
      <point x="-78" y="-59"/>
      <point x="-156" y="-59" type="curve" smooth="yes"/>
      <point x="-186" y="-59"/>
      <point x="-213" y="-73"/>
      <point x="-228" y="-98" type="curve"/>
      <point x="-245" y="-69"/>
      <point x="-271" y="-59"/>
      <point x="-303" y="-59" type="curve" smooth="yes"/>
      <point x="-380" y="-59"/>
      <point x="-396" y="-113"/>
      <point x="-396" y="-158" type="curve" smooth="yes"/>
      <point x="-396" y="-172"/>
      <point x="-394" y="-190"/>
    </contour>
  </outline>
</glyph>
<glyph name="uniABE9" format="2">
  <unicode hex="ABE9"/>
  <outline>
    <contour>
      <point x="-137" y="688" type="line"/>
      <point x="-67" y="688" type="line"/>
      <point x="-67" y="768" type="line"/>
      <point x="21" y="771"/>
      <point x="77" y="815"/>
      <point x="77" y="884" type="curve" smooth="yes"/>
      <point x="77" y="942"/>
      <point x="31" y="984"/>
      <point x="-30" y="984" type="curve" smooth="yes"/>
      <point x="-98" y="984"/>
      <point x="-137" y="946"/>
      <point x="-137" y="877" type="curve" smooth="yes"/>
      <point x="-137" y="829" type="line"/>
      <point x="-219" y="835"/>
      <point x="-236" y="900"/>
      <point x="-237" y="980" type="curve"/>
      <point x="-306" y="980" type="line"/>
      <point x="-306" y="879"/>
      <point x="-281" y="772"/>
      <point x="-137" y="768" type="curve"/>
    </contour>
    <contour>
      <point x="-67" y="829" type="curve"/>
      <point x="-67" y="874" type="line" smooth="yes"/>
      <point x="-67" y="913"/>
      <point x="-51" y="922"/>
      <point x="-28" y="922" type="curve" smooth="yes"/>
      <point x="-8" y="922"/>
      <point x="6" y="912"/>
      <point x="6" y="884" type="curve" smooth="yes"/>
      <point x="6" y="852"/>
      <point x="-10" y="830"/>
    </contour>
  </outline>
</glyph>
<glyph name="uniABEA" format="2">
  <unicode hex="ABEA"/>
  <outline>
    <contour>
      <point x="-103" y="682" type="line"/>
      <point x="-48" y="729"/>
      <point x="52" y="829"/>
      <point x="52" y="914" type="curve" smooth="yes"/>
      <point x="52" y="975"/>
      <point x="-2" y="1009"/>
      <point x="-50" y="1009" type="curve" smooth="yes"/>
      <point x="-106" y="1009"/>
      <point x="-151" y="968"/>
      <point x="-151" y="912" type="curve" smooth="yes"/>
      <point x="-151" y="864"/>
      <point x="-105" y="817"/>
      <point x="-69" y="802" type="curve"/>
      <point x="-91" y="775"/>
      <point x="-111" y="758"/>
      <point x="-147" y="729" type="curve"/>
    </contour>
    <contour>
      <point x="-34" y="845" type="curve"/>
      <point x="-62" y="863"/>
      <point x="-87" y="880"/>
      <point x="-87" y="908" type="curve" smooth="yes"/>
      <point x="-87" y="930"/>
      <point x="-72" y="950"/>
      <point x="-49" y="950" type="curve" smooth="yes"/>
      <point x="-26" y="950"/>
      <point x="-10" y="929"/>
      <point x="-10" y="904" type="curve" smooth="yes"/>
      <point x="-10" y="881"/>
      <point x="-23" y="858"/>
    </contour>
  </outline>
</glyph>
<glyph name="uniABEB" format="2">
  <advance width="452"/>
  <unicode hex="ABEB"/>
  <outline>
    <contour>
      <point x="86" y="-30" type="line"/>
      <point x="168" y="-30" type="line"/>
      <point x="168" y="688" type="line"/>
      <point x="86" y="688" type="line"/>
    </contour>
    <contour>
      <point x="285" y="-30" type="line"/>
      <point x="366" y="-30" type="line"/>
      <point x="366" y="688" type="line"/>
      <point x="285" y="688" type="line"/>
    </contour>
  </outline>
</glyph>
<glyph name="uniABEC" format="2">
  <advance width="265"/>
  <unicode hex="ABEC"/>
  <outline>
    <contour>
      <point x="131" y="75" type="curve" smooth="yes"/>
      <point x="167" y="75"/>
      <point x="195" y="103"/>
      <point x="195" y="140" type="curve" smooth="yes"/>
      <point x="195" y="175"/>
      <point x="167" y="203"/>
      <point x="131" y="203" type="curve" smooth="yes"/>
      <point x="98" y="203"/>
      <point x="70" y="175"/>
      <point x="70" y="140" type="curve" smooth="yes"/>
      <point x="70" y="103"/>
      <point x="98" y="75"/>
    </contour>
  </outline>
</glyph>
<glyph name="uniABED" format="2">
  <unicode hex="ABED"/>
  <outline>
    <contour>
      <point x="-576" y="-180" type="line"/>
      <point x="649" y="-180" type="line"/>
      <point x="649" y="-109" type="line"/>
      <point x="-576" y="-109" type="line"/>
    </contour>
  </outline>
</glyph>
<glyph name="uniABF0" format="2">
  <advance width="646"/>
  <unicode hex="ABF0"/>
  <outline>
    <contour>
      <point x="318" y="-12" type="curve" smooth="yes"/>
      <point x="508" y="-12"/>
      <point x="596" y="130"/>
      <point x="596" y="322" type="curve" smooth="yes"/>
      <point x="596" y="524"/>
      <point x="518" y="670"/>
      <point x="318" y="670" type="curve" smooth="yes"/>
      <point x="134" y="670"/>
      <point x="50" y="524"/>
      <point x="50" y="322" type="curve" smooth="yes"/>
      <point x="50" y="130"/>
      <point x="134" y="-12"/>
    </contour>
    <contour>
      <point x="318" y="63" type="curve" smooth="yes"/>
      <point x="180" y="63"/>
      <point x="131" y="177"/>
      <point x="131" y="327" type="curve" smooth="yes"/>
      <point x="131" y="475"/>
      <point x="180" y="595"/>
      <point x="318" y="595" type="curve" smooth="yes"/>
      <point x="472" y="595"/>
      <point x="509" y="475"/>
      <point x="509" y="327" type="curve" smooth="yes"/>
      <point x="509" y="177"/>
      <point x="471" y="63"/>
    </contour>
  </outline>
</glyph>
<glyph name="uniABF1" format="2">
  <advance width="588"/>
  <unicode hex="ABF1"/>
  <outline>
    <contour>
      <point x="300" y="-14" type="curve" smooth="yes"/>
      <point x="376" y="-14"/>
      <point x="443" y="30"/>
      <point x="443" y="115" type="curve" smooth="yes"/>
      <point x="443" y="202"/>
      <point x="384" y="248"/>
      <point x="293" y="294" type="curve" smooth="yes"/>
      <point x="208" y="337"/>
      <point x="126" y="388"/>
      <point x="126" y="471" type="curve" smooth="yes"/>
      <point x="126" y="557"/>
      <point x="203" y="594"/>
      <point x="300" y="594" type="curve" smooth="yes"/>
      <point x="418" y="594"/>
      <point x="461" y="548"/>
      <point x="461" y="483" type="curve" smooth="yes"/>
      <point x="461" y="444"/>
      <point x="445" y="412"/>
      <point x="398" y="412" type="curve" smooth="yes"/>
      <point x="370" y="412"/>
      <point x="346" y="433"/>
      <point x="336" y="451" type="curve"/>
      <point x="270" y="408" type="line"/>
      <point x="289" y="377"/>
      <point x="333" y="336"/>
      <point x="400" y="336" type="curve" smooth="yes"/>
      <point x="502" y="336"/>
      <point x="543" y="402"/>
      <point x="543" y="484" type="curve" smooth="yes"/>
      <point x="543" y="583"/>
      <point x="451" y="665"/>
      <point x="299" y="665" type="curve" smooth="yes"/>
      <point x="155" y="665"/>
      <point x="45" y="599"/>
      <point x="45" y="471" type="curve" smooth="yes"/>
      <point x="45" y="353"/>
      <point x="142" y="298"/>
      <point x="236" y="247" type="curve" smooth="yes"/>
      <point x="330" y="196"/>
      <point x="364" y="161"/>
      <point x="364" y="119" type="curve" smooth="yes"/>
      <point x="364" y="73"/>
      <point x="329" y="56"/>
      <point x="297" y="56" type="curve" smooth="yes"/>
      <point x="267" y="56"/>
      <point x="228" y="77"/>
      <point x="203" y="114" type="curve"/>
      <point x="138" y="74" type="line"/>
      <point x="183" y="8"/>
      <point x="246" y="-14"/>
    </contour>
  </outline>
</glyph>
<glyph name="uniABF2" format="2">
  <advance width="645"/>
  <unicode hex="ABF2"/>
  <outline>
    <contour>
      <point x="310" y="-9" type="curve" smooth="yes"/>
      <point x="383" y="-9"/>
      <point x="449" y="37"/>
      <point x="449" y="116" type="curve" smooth="yes"/>
      <point x="449" y="148"/>
      <point x="434" y="179"/>
      <point x="410" y="204" type="curve"/>
      <point x="504" y="202"/>
      <point x="540" y="144"/>
      <point x="540" y="80" type="curve" smooth="yes"/>
      <point x="540" y="61"/>
      <point x="537" y="41"/>
      <point x="531" y="22" type="curve"/>
      <point x="611" y="6" type="line"/>
      <point x="617" y="29"/>
      <point x="620" y="53"/>
      <point x="620" y="75" type="curve" smooth="yes"/>
      <point x="620" y="180"/>
      <point x="554" y="265"/>
      <point x="388" y="265" type="curve" smooth="yes"/>
      <point x="375" y="265"/>
      <point x="371" y="265"/>
      <point x="346" y="263" type="curve"/>
      <point x="332" y="271"/>
      <point x="312" y="281"/>
      <point x="297" y="288" type="curve" smooth="yes"/>
      <point x="220" y="326"/>
      <point x="127" y="382"/>
      <point x="127" y="468" type="curve" smooth="yes"/>
      <point x="127" y="554"/>
      <point x="196" y="594"/>
      <point x="303" y="594" type="curve" smooth="yes"/>
      <point x="421" y="594"/>
      <point x="466" y="548"/>
      <point x="466" y="483" type="curve" smooth="yes"/>
      <point x="466" y="444"/>
      <point x="450" y="412"/>
      <point x="403" y="412" type="curve" smooth="yes"/>
      <point x="375" y="412"/>
      <point x="351" y="433"/>
      <point x="341" y="451" type="curve"/>
      <point x="275" y="408" type="line"/>
      <point x="293" y="377"/>
      <point x="338" y="336"/>
      <point x="405" y="336" type="curve" smooth="yes"/>
      <point x="507" y="336"/>
      <point x="547" y="402"/>
      <point x="547" y="484" type="curve" smooth="yes"/>
      <point x="547" y="583"/>
      <point x="454" y="665"/>
      <point x="302" y="665" type="curve" smooth="yes"/>
      <point x="148" y="665"/>
      <point x="45" y="596"/>
      <point x="45" y="468" type="curve" smooth="yes"/>
      <point x="45" y="365"/>
      <point x="119" y="306"/>
      <point x="255" y="232" type="curve"/>
      <point x="207" y="204"/>
      <point x="172" y="163"/>
      <point x="172" y="110" type="curve" smooth="yes"/>
      <point x="172" y="15"/>
      <point x="256" y="-9"/>
    </contour>
    <contour>
      <point x="310" y="62" type="curve" smooth="yes"/>
      <point x="271" y="62"/>
      <point x="252" y="84"/>
      <point x="252" y="111" type="curve" smooth="yes"/>
      <point x="252" y="150"/>
      <point x="283" y="180"/>
      <point x="324" y="191" type="curve"/>
      <point x="354" y="172"/>
      <point x="366" y="146"/>
      <point x="366" y="114" type="curve" smooth="yes"/>
      <point x="366" y="77"/>
      <point x="339" y="62"/>
    </contour>
  </outline>
</glyph>
<glyph name="uniABF3" format="2">
  <advance width="842"/>
  <unicode hex="ABF3"/>
  <outline>
    <contour>
      <point x="309" y="-9" type="curve" smooth="yes"/>
      <point x="384" y="-9"/>
      <point x="441" y="33"/>
      <point x="441" y="112" type="curve" smooth="yes"/>
      <point x="441" y="144"/>
      <point x="427" y="177"/>
      <point x="405" y="201" type="curve"/>
      <point x="427" y="208"/>
      <point x="443" y="209"/>
      <point x="471" y="209" type="curve" smooth="yes"/>
      <point x="487" y="209"/>
      <point x="512" y="205"/>
      <point x="533" y="198" type="curve"/>
      <point x="507" y="170"/>
      <point x="491" y="139"/>
      <point x="491" y="100" type="curve" smooth="yes"/>
      <point x="491" y="42"/>
      <point x="534" y="3"/>
      <point x="593" y="3" type="curve" smooth="yes"/>
      <point x="663" y="3"/>
      <point x="700" y="45"/>
      <point x="700" y="102" type="curve" smooth="yes"/>
      <point x="700" y="141"/>
      <point x="687" y="170"/>
      <point x="653" y="204" type="curve"/>
      <point x="666" y="211"/>
      <point x="677" y="215"/>
      <point x="693" y="215" type="curve" smooth="yes"/>
      <point x="724" y="215"/>
      <point x="747" y="207"/>
      <point x="778" y="169" type="curve"/>
      <point x="832" y="213" type="line"/>
      <point x="794" y="261"/>
      <point x="752" y="278"/>
      <point x="696" y="278" type="curve" smooth="yes"/>
      <point x="658" y="278"/>
      <point x="627" y="265"/>
      <point x="592" y="243" type="curve"/>
      <point x="554" y="261"/>
      <point x="506" y="270"/>
      <point x="458" y="270" type="curve" smooth="yes"/>
      <point x="420" y="270"/>
      <point x="381" y="266"/>
      <point x="344" y="260" type="curve"/>
      <point x="301" y="283" type="line" smooth="yes"/>
      <point x="215" y="329"/>
      <point x="128" y="374"/>
      <point x="128" y="468" type="curve" smooth="yes"/>
      <point x="128" y="554"/>
      <point x="196" y="594"/>
      <point x="302" y="594" type="curve" smooth="yes"/>
      <point x="421" y="594"/>
      <point x="466" y="548"/>
      <point x="466" y="483" type="curve" smooth="yes"/>
      <point x="466" y="444"/>
      <point x="450" y="412"/>
      <point x="404" y="412" type="curve" smooth="yes"/>
      <point x="376" y="412"/>
      <point x="351" y="433"/>
      <point x="340" y="451" type="curve"/>
      <point x="276" y="408" type="line"/>
      <point x="294" y="377"/>
      <point x="337" y="336"/>
      <point x="406" y="336" type="curve" smooth="yes"/>
      <point x="508" y="336"/>
      <point x="547" y="402"/>
      <point x="547" y="484" type="curve" smooth="yes"/>
      <point x="547" y="583"/>
      <point x="454" y="665"/>
      <point x="301" y="665" type="curve" smooth="yes"/>
      <point x="149" y="665"/>
      <point x="45" y="596"/>
      <point x="45" y="468" type="curve" smooth="yes"/>
      <point x="45" y="344"/>
      <point x="144" y="288"/>
      <point x="255" y="228" type="curve"/>
      <point x="205" y="200"/>
      <point x="172" y="164"/>
      <point x="172" y="110" type="curve" smooth="yes"/>
      <point x="172" y="15"/>
      <point x="257" y="-9"/>
    </contour>
    <contour>
      <point x="309" y="62" type="curve" smooth="yes"/>
      <point x="272" y="62"/>
      <point x="253" y="84"/>
      <point x="253" y="111" type="curve" smooth="yes"/>
      <point x="253" y="151"/>
      <point x="284" y="180"/>
      <point x="323" y="191" type="curve"/>
      <point x="347" y="173"/>
      <point x="363" y="146"/>
      <point x="363" y="114" type="curve" smooth="yes"/>
      <point x="363" y="77"/>
      <point x="338" y="62"/>
    </contour>
    <contour>
      <point x="593" y="63" type="curve" smooth="yes"/>
      <point x="571" y="63"/>
      <point x="559" y="81"/>
      <point x="559" y="108" type="curve" smooth="yes"/>
      <point x="559" y="137"/>
      <point x="571" y="159"/>
      <point x="596" y="178" type="curve"/>
      <point x="619" y="159"/>
      <point x="631" y="137"/>
      <point x="631" y="109" type="curve" smooth="yes"/>
      <point x="631" y="84"/>
      <point x="622" y="63"/>
    </contour>
  </outline>
</glyph>
<glyph name="uniABF5" format="2">
  <advance width="647"/>
  <unicode hex="ABF5"/>
  <outline>
    <contour>
      <point x="240" y="0" type="line"/>
      <point x="323" y="0" type="line"/>
      <point x="323" y="226" type="line"/>
      <point x="451" y="233"/>
      <point x="473" y="302"/>
      <point x="473" y="349" type="curve" smooth="yes"/>
      <point x="473" y="404"/>
      <point x="443" y="460"/>
      <point x="362" y="460" type="curve" smooth="yes"/>
      <point x="284" y="460"/>
      <point x="240" y="424"/>
      <point x="240" y="327" type="curve" smooth="yes"/>
      <point x="240" y="302" type="line"/>
      <point x="149" y="320"/>
      <point x="131" y="390"/>
      <point x="131" y="440" type="curve" smooth="yes"/>
      <point x="131" y="525"/>
      <point x="179" y="587"/>
      <point x="330" y="587" type="curve" smooth="yes"/>
      <point x="458" y="587"/>
      <point x="518" y="543"/>
      <point x="518" y="488" type="curve" smooth="yes"/>
      <point x="518" y="465"/>
      <point x="507" y="445"/>
      <point x="493" y="429" type="curve"/>
      <point x="557" y="369" type="line"/>
      <point x="584" y="400"/>
      <point x="602" y="434"/>
      <point x="602" y="477" type="curve" smooth="yes"/>
      <point x="602" y="585"/>
      <point x="493" y="662"/>
      <point x="332" y="662" type="curve" smooth="yes"/>
      <point x="123" y="662"/>
      <point x="45" y="565"/>
      <point x="45" y="439" type="curve" smooth="yes"/>
      <point x="45" y="344"/>
      <point x="103" y="251"/>
      <point x="240" y="230" type="curve"/>
    </contour>
    <contour>
      <point x="322" y="301" type="curve"/>
      <point x="322" y="361"/>
      <point x="322" y="391"/>
      <point x="363" y="391" type="curve" smooth="yes"/>
      <point x="388" y="391"/>
      <point x="396" y="369"/>
      <point x="396" y="351" type="curve" smooth="yes"/>
      <point x="396" y="329"/>
      <point x="392" y="301"/>
    </contour>
  </outline>
</glyph>
<glyph name="uniABF6" format="2">
  <advance width="661"/>
  <unicode hex="ABF6"/>
  <outline>
    <contour>
      <point x="241" y="0" type="line"/>
      <point x="323" y="0" type="line"/>
      <point x="621" y="229" type="line"/>
      <point x="576" y="286" type="line"/>
      <point x="321" y="87" type="line"/>
      <point x="321" y="226" type="line"/>
      <point x="449" y="233"/>
      <point x="473" y="302"/>
      <point x="473" y="349" type="curve" smooth="yes"/>
      <point x="473" y="404"/>
      <point x="443" y="460"/>
      <point x="362" y="460" type="curve" smooth="yes"/>
      <point x="284" y="460"/>
      <point x="241" y="424"/>
      <point x="241" y="327" type="curve" smooth="yes"/>
      <point x="241" y="302" type="line"/>
      <point x="147" y="321"/>
      <point x="131" y="401"/>
      <point x="131" y="444" type="curve" smooth="yes"/>
      <point x="131" y="526"/>
      <point x="181" y="587"/>
      <point x="330" y="587" type="curve" smooth="yes"/>
      <point x="458" y="587"/>
      <point x="518" y="543"/>
      <point x="518" y="488" type="curve" smooth="yes"/>
      <point x="518" y="464"/>
      <point x="509" y="445"/>
      <point x="494" y="429" type="curve"/>
      <point x="557" y="369" type="line"/>
      <point x="584" y="400"/>
      <point x="602" y="434"/>
      <point x="602" y="477" type="curve" smooth="yes"/>
      <point x="602" y="585"/>
      <point x="493" y="662"/>
      <point x="332" y="662" type="curve" smooth="yes"/>
      <point x="125" y="662"/>
      <point x="45" y="567"/>
      <point x="45" y="444" type="curve" smooth="yes"/>
      <point x="45" y="347"/>
      <point x="101" y="251"/>
      <point x="241" y="230" type="curve"/>
    </contour>
    <contour>
      <point x="322" y="301" type="curve"/>
      <point x="322" y="361"/>
      <point x="322" y="391"/>
      <point x="363" y="391" type="curve" smooth="yes"/>
      <point x="388" y="391"/>
      <point x="396" y="369"/>
      <point x="396" y="351" type="curve" smooth="yes"/>
      <point x="396" y="329"/>
      <point x="392" y="301"/>
    </contour>
  </outline>
</glyph>
<glyph name="uniABF7" format="2">
  <advance width="768"/>
  <unicode hex="ABF7"/>
  <outline>
    <contour>
      <point x="471" y="-12" type="line"/>
      <point x="542" y="-9"/>
      <point x="637" y="25"/>
      <point x="637" y="141" type="curve" smooth="yes"/>
      <point x="637" y="216"/>
      <point x="617" y="303"/>
      <point x="596" y="383" type="curve"/>
      <point x="683" y="429"/>
      <point x="738" y="474"/>
      <point x="738" y="552" type="curve" smooth="yes"/>
      <point x="738" y="628"/>
      <point x="681" y="679"/>
      <point x="602" y="679" type="curve" smooth="yes"/>
      <point x="532" y="679"/>
      <point x="474" y="634"/>
      <point x="474" y="561" type="curve" smooth="yes"/>
      <point x="474" y="520"/>
      <point x="488" y="473"/>
      <point x="504" y="421" type="curve"/>
      <point x="456" y="400"/>
      <point x="374" y="368"/>
      <point x="354" y="360" type="curve"/>
      <point x="337" y="506"/>
      <point x="289" y="668"/>
      <point x="171" y="668" type="curve" smooth="yes"/>
      <point x="82" y="668"/>
      <point x="30" y="605"/>
      <point x="30" y="550" type="curve" smooth="yes"/>
      <point x="30" y="526"/>
      <point x="37" y="500"/>
      <point x="41" y="488" type="curve"/>
      <point x="120" y="516" type="line"/>
      <point x="117" y="525"/>
      <point x="113" y="539"/>
      <point x="113" y="550" type="curve" smooth="yes"/>
      <point x="113" y="570"/>
      <point x="126" y="597"/>
      <point x="167" y="597" type="curve" smooth="yes"/>
      <point x="230" y="597"/>
      <point x="260" y="451"/>
      <point x="272" y="329" type="curve"/>
      <point x="155" y="281"/>
      <point x="60" y="223"/>
      <point x="60" y="127" type="curve" smooth="yes"/>
      <point x="60" y="49"/>
      <point x="123" y="-7"/>
      <point x="200" y="-7" type="curve" smooth="yes"/>
      <point x="316" y="-7"/>
      <point x="362" y="88"/>
      <point x="362" y="216" type="curve" smooth="yes"/>
      <point x="362" y="235"/>
      <point x="361" y="259"/>
      <point x="360" y="282" type="curve"/>
      <point x="435" y="309"/>
      <point x="476" y="327"/>
      <point x="527" y="348" type="curve"/>
      <point x="549" y="276"/>
      <point x="559" y="208"/>
      <point x="559" y="160" type="curve" smooth="yes"/>
      <point x="559" y="98"/>
      <point x="526" y="70"/>
      <point x="451" y="62" type="curve"/>
    </contour>
    <contour>
      <point x="200" y="64" type="curve" smooth="yes"/>
      <point x="163" y="64"/>
      <point x="142" y="91"/>
      <point x="142" y="125" type="curve" smooth="yes"/>
      <point x="142" y="177"/>
      <point x="203" y="214"/>
      <point x="278" y="249" type="curve"/>
      <point x="279" y="237"/>
      <point x="279" y="225"/>
      <point x="279" y="216" type="curve" smooth="yes"/>
      <point x="279" y="131"/>
      <point x="257" y="64"/>
    </contour>
    <contour>
      <point x="573" y="453" type="curve"/>
      <point x="560" y="491"/>
      <point x="550" y="525"/>
      <point x="550" y="558" type="curve" smooth="yes"/>
      <point x="550" y="595"/>
      <point x="576" y="614"/>
      <point x="606" y="614" type="curve" smooth="yes"/>
      <point x="637" y="614"/>
      <point x="658" y="591"/>
      <point x="658" y="559" type="curve" smooth="yes"/>
      <point x="658" y="516"/>
      <point x="621" y="478"/>
    </contour>
  </outline>
</glyph>
<glyph name="uniABF8" format="2">
  <advance width="647"/>
  <unicode hex="ABF8"/>
  <outline>
    <contour>
      <point x="208" y="-6" type="curve" smooth="yes"/>
      <point x="260" y="-6"/>
      <point x="323" y="24"/>
      <point x="323" y="103" type="curve" smooth="yes"/>
      <point x="323" y="226" type="line"/>
      <point x="451" y="233"/>
      <point x="473" y="302"/>
      <point x="473" y="349" type="curve" smooth="yes"/>
      <point x="473" y="404"/>
      <point x="443" y="460"/>
      <point x="362" y="460" type="curve" smooth="yes"/>
      <point x="284" y="460"/>
      <point x="240" y="424"/>
      <point x="240" y="327" type="curve" smooth="yes"/>
      <point x="240" y="302" type="line"/>
      <point x="147" y="321"/>
      <point x="130" y="401"/>
      <point x="130" y="444" type="curve" smooth="yes"/>
      <point x="130" y="526"/>
      <point x="181" y="587"/>
      <point x="330" y="587" type="curve" smooth="yes"/>
      <point x="458" y="587"/>
      <point x="518" y="543"/>
      <point x="518" y="488" type="curve" smooth="yes"/>
      <point x="518" y="465"/>
      <point x="507" y="445"/>
      <point x="493" y="429" type="curve"/>
      <point x="557" y="369" type="line"/>
      <point x="584" y="400"/>
      <point x="602" y="434"/>
      <point x="602" y="477" type="curve" smooth="yes"/>
      <point x="602" y="585"/>
      <point x="493" y="662"/>
      <point x="332" y="662" type="curve" smooth="yes"/>
      <point x="125" y="662"/>
      <point x="45" y="567"/>
      <point x="45" y="444" type="curve" smooth="yes"/>
      <point x="45" y="347"/>
      <point x="101" y="251"/>
      <point x="240" y="230" type="curve"/>
      <point x="240" y="111" type="line" smooth="yes"/>
      <point x="240" y="78"/>
      <point x="223" y="66"/>
      <point x="201" y="66" type="curve" smooth="yes"/>
      <point x="171" y="66"/>
      <point x="158" y="86"/>
      <point x="132" y="127" type="curve"/>
      <point x="71" y="82" type="line"/>
      <point x="117" y="9"/>
      <point x="159" y="-6"/>
    </contour>
    <contour>
      <point x="322" y="301" type="curve"/>
      <point x="322" y="361"/>
      <point x="322" y="391"/>
      <point x="363" y="391" type="curve" smooth="yes"/>
      <point x="388" y="391"/>
      <point x="396" y="369"/>
      <point x="396" y="351" type="curve" smooth="yes"/>
      <point x="396" y="329"/>
      <point x="392" y="301"/>
    </contour>
  </outline>
</glyph>
<glyph name="uniABF9" format="2">
  <advance width="647"/>
  <unicode hex="ABF9"/>
  <outline>
    <contour>
      <point x="200" y="-6" type="curve" smooth="yes"/>
      <point x="269" y="-6"/>
      <point x="320" y="34"/>
      <point x="320" y="107" type="curve" smooth="yes"/>
      <point x="320" y="151" type="line"/>
      <point x="508" y="151" type="line"/>
      <point x="508" y="211" type="line"/>
      <point x="320" y="211" type="line"/>
      <point x="320" y="255" type="line"/>
      <point x="448" y="262"/>
      <point x="473" y="316"/>
      <point x="473" y="364" type="curve" smooth="yes"/>
      <point x="473" y="419"/>
      <point x="440" y="475"/>
      <point x="362" y="475" type="curve" smooth="yes"/>
      <point x="291" y="475"/>
      <point x="243" y="438"/>
      <point x="243" y="342" type="curve" smooth="yes"/>
      <point x="243" y="316" type="line"/>
      <point x="145" y="337"/>
      <point x="130" y="404"/>
      <point x="130" y="452" type="curve" smooth="yes"/>
      <point x="130" y="527"/>
      <point x="186" y="591"/>
      <point x="330" y="591" type="curve" smooth="yes"/>
      <point x="458" y="591"/>
      <point x="518" y="543"/>
      <point x="518" y="488" type="curve" smooth="yes"/>
      <point x="518" y="465"/>
      <point x="512" y="447"/>
      <point x="496" y="424" type="curve"/>
      <point x="565" y="372" type="line"/>
      <point x="592" y="404"/>
      <point x="602" y="443"/>
      <point x="602" y="477" type="curve" smooth="yes"/>
      <point x="602" y="585"/>
      <point x="493" y="662"/>
      <point x="332" y="662" type="curve" smooth="yes"/>
      <point x="130" y="662"/>
      <point x="45" y="571"/>
      <point x="45" y="452" type="curve" smooth="yes"/>
      <point x="45" y="351"/>
      <point x="102" y="277"/>
      <point x="245" y="255" type="curve"/>
      <point x="245" y="211" type="line"/>
      <point x="226" y="211" type="line" smooth="yes"/>
      <point x="159" y="211"/>
      <point x="86" y="193"/>
      <point x="86" y="101" type="curve" smooth="yes"/>
      <point x="86" y="28"/>
      <point x="144" y="-6"/>
    </contour>
    <contour>
      <point x="202" y="58" type="curve" smooth="yes"/>
      <point x="176" y="58"/>
      <point x="164" y="76"/>
      <point x="164" y="106" type="curve" smooth="yes"/>
      <point x="164" y="148"/>
      <point x="201" y="152"/>
      <point x="245" y="152" type="curve"/>
      <point x="245" y="109" type="line" smooth="yes"/>
      <point x="245" y="72"/>
      <point x="229" y="58"/>
    </contour>
    <contour>
      <point x="317" y="315" type="curve"/>
      <point x="317" y="377"/>
      <point x="322" y="406"/>
      <point x="363" y="406" type="curve" smooth="yes"/>
      <point x="388" y="406"/>
      <point x="396" y="385"/>
      <point x="396" y="366" type="curve" smooth="yes"/>
      <point x="396" y="344"/>
      <point x="387" y="315"/>
    </contour>
  </outline>
</glyph>
<glyph name="uniABED.alt2" format="2">
  <note>
uniABED.alt2
</note>
  <outline>
    <contour>
      <point x="-708" y="-180" type="line"/>
      <point x="1147" y="-180" type="line"/>
      <point x="1147" y="-109" type="line"/>
      <point x="-708" y="-109" type="line"/>
    </contour>
  </outline>
</glyph>
<glyph name="uniABED.alt3" format="2">
  <note>
uniABED.alt3
</note>
  <outline>
    <contour>
      <point x="-854" y="-180" type="line"/>
      <point x="708" y="-180" type="line"/>
      <point x="708" y="-109" type="line"/>
      <point x="-854" y="-109" type="line"/>
    </contour>
  </outline>
</glyph>
<glyph name="uniABED.alt4" format="2">
  <note>
uniABED.alt4
</note>
  <outline>
    <contour>
      <point x="-854" y="-180" type="line"/>
      <point x="854" y="-180" type="line"/>
      <point x="854" y="-109" type="line"/>
      <point x="-854" y="-109" type="line"/>
    </contour>
  </outline>
</glyph>
<glyph name="uniABED.alt8" format="2">
  <note>
uniABED.alt8
</note>
  <outline>
    <contour>
      <point x="-1147" y="-180" type="line"/>
      <point x="1147" y="-180" type="line"/>
      <point x="1147" y="-109" type="line"/>
      <point x="-1147" y="-109" type="line"/>
    </contour>
  </outline>
</glyph>
